{"glyphs":{"0":{"ha":394,"x_min":28,"x_max":367,"o":"m 28 869 q 35 903 28 881 q 50 939 42 925 q 193 1022 93 1022 q 309 981 263 1022 q 367 869 356 940 l 367 138 q 310 28 354 68 q 201 -11 265 -11 q 89 28 135 -11 q 28 139 43 68 l 28 869 m 157 169 q 204 125 165 125 q 234 138 222 125 q 246 169 246 150 l 246 846 q 233 880 246 865 q 200 894 219 894 q 169 880 182 894 q 157 846 157 865 l 157 169 z "},"1":{"ha":311,"x_min":21,"x_max":282,"o":"m 21 721 l 21 890 l 161 1011 l 275 1011 q 282 997 282 1011 l 282 17 q 271 0 282 0 l 142 0 q 133 24 133 0 l 133 818 l 21 721 z "},"2":{"ha":403,"x_min":28,"x_max":375,"o":"m 369 129 l 369 11 q 354 0 369 0 l 28 0 l 28 139 q 53 283 28 201 q 122 443 78 365 l 190 564 q 218 613 208 594 q 232 642 228 631 q 237 665 236 654 q 238 693 238 676 l 238 846 q 226 874 238 863 q 200 886 215 886 q 172 864 182 886 q 161 806 161 842 l 161 676 l 28 676 l 28 857 q 35 901 28 876 q 56 949 43 926 q 197 1022 99 1022 q 361 917 318 1022 q 371 885 367 903 q 375 857 375 867 l 375 668 q 339 556 368 621 q 263 413 310 492 q 192 263 217 333 q 168 135 168 192 l 168 129 l 369 129 z "},"3":{"ha":394,"x_min":28,"x_max":367,"o":"m 157 161 q 168 132 157 143 q 197 121 179 121 q 226 134 215 121 q 238 168 238 147 l 238 410 q 206 454 238 447 l 174 454 l 174 604 l 206 604 q 225 619 217 604 q 233 656 233 635 l 233 838 q 223 873 233 860 q 197 886 213 886 q 168 872 179 886 q 157 838 157 858 l 157 676 l 28 676 l 28 846 q 74 974 28 925 q 194 1022 119 1022 q 332 951 289 1022 q 353 903 344 931 q 363 857 363 876 l 363 660 q 344 587 363 619 q 294 539 326 554 q 367 450 339 539 l 367 181 q 359 130 367 161 q 340 76 351 99 q 199 -12 294 -12 q 115 8 151 -12 q 57 64 78 28 q 35 114 43 88 q 28 161 28 140 l 28 333 l 157 333 l 157 161 z "},"4":{"ha":447,"x_min":28,"x_max":418,"o":"m 40 189 q 28 201 28 193 l 28 350 l 136 1011 l 261 1011 l 161 322 l 238 322 l 238 649 l 369 649 l 369 322 l 418 322 l 418 185 l 369 185 l 369 17 q 358 0 369 0 l 253 0 q 238 13 238 0 l 238 189 l 40 189 z "},"5":{"ha":399,"x_min":28,"x_max":371,"o":"m 28 504 l 28 1011 l 358 1011 l 358 888 l 161 888 l 161 646 q 198 677 172 665 q 258 689 224 689 q 342 659 313 689 q 371 572 371 629 l 371 150 q 364 110 371 133 q 346 68 357 88 q 199 -7 301 -7 q 42 97 81 -7 q 31 131 35 113 q 28 161 28 150 l 28 343 l 157 343 l 157 169 q 200 133 164 133 q 227 144 217 133 q 238 174 238 156 l 238 532 q 226 561 238 550 q 197 572 215 572 q 172 563 182 572 q 161 540 161 554 l 161 504 l 28 504 z "},"6":{"ha":403,"x_min":28,"x_max":375,"o":"m 165 164 q 178 140 168 149 q 201 131 188 131 q 229 141 217 131 q 242 167 242 151 l 242 506 q 230 528 242 519 q 203 538 218 538 q 176 529 188 538 q 165 510 165 521 l 165 164 m 165 614 q 206 656 179 640 q 264 671 232 671 q 342 638 310 671 q 375 558 375 604 l 375 135 q 367 101 375 122 q 347 61 358 79 q 289 8 326 26 q 203 -10 251 -10 q 74 41 119 -10 q 28 183 28 92 l 28 860 q 36 902 28 876 q 57 947 44 928 q 201 1021 101 1021 q 319 982 271 1021 q 375 881 368 943 l 375 739 l 246 739 l 246 840 q 233 869 246 857 q 203 881 221 881 q 176 869 186 881 q 165 840 165 858 l 165 614 z "},"7":{"ha":385,"x_min":28,"x_max":358,"o":"m 28 874 l 28 1011 l 358 1011 l 358 869 l 229 0 l 85 0 l 210 874 l 28 874 z "},"8":{"ha":396,"x_min":28,"x_max":368,"o":"m 238 443 q 222 464 233 456 q 197 472 211 472 q 171 462 182 472 q 157 436 160 451 l 157 167 q 169 137 157 149 q 197 125 181 125 q 226 137 214 125 q 238 165 238 149 l 238 443 m 238 858 q 222 883 233 874 q 197 892 211 892 q 171 881 182 892 q 157 856 160 871 l 157 646 q 168 617 157 628 q 197 606 179 606 q 226 617 215 606 q 238 646 238 628 l 238 858 m 367 879 q 368 860 368 872 q 368 826 368 849 l 368 799 l 368 621 q 363 600 368 614 q 350 578 357 586 q 329 556 340 565 q 299 536 318 547 q 363 464 354 517 l 363 106 q 309 21 354 53 q 197 -11 264 -11 q 81 22 126 -11 q 28 114 36 56 l 28 456 q 44 501 28 479 q 89 536 61 524 q 32 613 47 540 l 32 879 q 87 985 43 947 q 199 1024 131 1024 q 308 990 268 1024 q 365 883 347 957 l 367 879 z "},"9":{"ha":404,"x_min":28,"x_max":371,"o":"m 32 878 q 86 983 43 944 q 196 1022 129 1022 q 310 985 268 1022 q 371 865 351 947 l 371 128 q 310 25 358 63 q 194 -12 263 -12 q 101 11 140 -12 q 42 81 61 35 q 32 109 36 93 q 28 132 28 125 l 28 253 l 157 253 l 157 164 q 200 128 164 128 q 227 139 217 128 q 238 168 238 150 l 238 406 q 202 366 231 382 q 138 350 174 350 q 42 419 67 350 q 32 467 32 446 l 32 878 m 238 861 q 222 882 233 874 q 194 890 210 890 q 169 881 179 890 q 157 854 160 871 l 157 511 q 168 482 157 493 q 197 471 179 471 q 226 482 215 471 q 238 511 238 493 l 238 861 z "},"\r":{"ha":0,"x_min":0,"x_max":0,"o":""}," ":{"ha":278,"x_min":0,"x_max":0,"o":""},"!":{"ha":229,"x_min":28,"x_max":201,"o":"m 113 151 q 172 127 147 151 q 197 67 197 103 q 172 10 197 35 q 113 -14 147 -14 q 56 10 79 -14 q 32 68 32 33 q 56 127 32 103 q 113 151 79 151 m 60 267 l 28 992 q 40 1011 28 1011 l 185 1011 q 201 996 201 1011 l 165 267 l 60 267 z "},"\"":{"ha":340,"x_min":49,"x_max":293,"o":"m 283 1129 q 293 1117 293 1129 l 279 881 q 271 869 279 869 l 226 869 q 215 881 215 869 l 204 1117 q 214 1129 204 1129 l 283 1129 m 128 1129 q 138 1117 138 1129 l 124 881 q 115 869 124 869 l 71 869 q 60 881 60 869 l 49 1117 q 58 1129 49 1129 l 128 1129 z "},"#":{"ha":643,"x_min":35,"x_max":618,"o":"m 272 510 l 260 424 l 369 424 l 382 510 l 272 510 m 493 288 l 453 0 l 308 0 l 350 288 l 240 288 l 200 0 l 56 0 l 96 288 l 35 288 l 35 424 l 115 424 l 128 510 l 35 510 l 35 646 l 147 646 l 199 1011 l 343 1011 l 290 646 l 401 646 l 451 1011 l 596 1011 l 543 646 l 618 646 l 618 510 l 524 510 l 513 424 l 618 424 l 618 288 l 493 288 z "},"$":{"ha":435,"x_min":25,"x_max":404,"o":"m 276 1014 q 315 995 299 1006 q 347 968 331 985 q 386 910 371 943 q 401 851 401 876 l 401 694 q 382 675 401 675 l 276 675 q 257 694 257 675 l 257 819 q 214 868 257 868 q 176 845 186 868 q 165 764 165 822 l 165 754 q 188 665 165 706 q 265 578 211 625 q 373 463 342 511 q 404 360 404 414 l 404 153 q 394 106 404 131 q 366 60 383 82 q 326 21 349 39 q 276 -7 303 3 l 276 -121 q 257 -140 276 -140 l 168 -140 q 149 -121 149 -140 l 149 -8 q 56 67 86 15 q 25 204 25 118 l 25 356 q 35 372 25 372 l 161 372 q 171 356 171 372 l 171 175 q 180 136 171 147 q 213 125 189 125 q 256 178 256 125 l 256 324 q 253 347 256 335 q 243 381 250 358 q 227 419 236 401 q 203 453 218 436 q 167 487 189 469 q 114 528 146 504 q 46 607 67 563 q 25 722 25 651 l 25 849 q 35 897 25 872 q 63 944 46 922 q 101 985 79 967 q 149 1013 124 1003 l 149 1117 q 168 1138 149 1138 l 257 1138 q 276 1117 276 1138 l 276 1014 z "},"%":{"ha":911,"x_min":28,"x_max":883,"o":"m 628 643 q 633 668 628 651 q 644 696 638 685 q 753 757 678 757 q 840 726 806 757 q 883 643 875 696 l 883 93 q 840 12 874 42 q 758 -18 807 -18 q 674 13 710 -18 q 628 94 639 43 l 628 643 m 725 117 q 761 83 732 83 q 783 92 775 83 q 792 117 792 101 l 792 625 q 783 651 792 640 q 758 661 774 661 q 735 651 746 661 q 725 625 725 640 l 725 117 m 289 -208 q 269 -225 285 -225 l 193 -225 q 183 -210 183 -225 l 183 -207 l 183 -201 q 185 -197 185 -199 q 324 258 256 32 q 461 711 392 483 q 495 824 478 768 q 531 939 513 881 q 546 992 544 976 q 561 1011 550 1011 l 646 1011 q 656 1001 656 1011 q 653 992 656 997 l 289 -208 m 28 900 q 33 925 28 908 q 44 953 38 942 q 153 1014 78 1014 q 240 983 206 1014 q 283 900 275 953 l 283 350 q 240 269 274 299 q 158 239 207 239 q 74 269 110 239 q 28 351 39 300 l 28 900 m 125 374 q 161 340 132 340 q 183 349 175 340 q 192 374 192 358 l 192 882 q 183 908 192 897 q 158 918 174 918 q 135 908 146 918 q 125 882 125 897 l 125 374 z "},"&":{"ha":564,"x_min":44,"x_max":540,"o":"m 249 460 q 192 449 206 460 q 178 401 178 438 l 178 175 q 221 122 178 122 q 267 171 267 122 l 267 460 l 524 460 q 540 450 540 460 l 540 349 q 524 339 540 339 l 406 339 l 406 153 q 390 89 406 119 q 349 35 375 58 q 288 -1 322 13 q 215 -15 254 -15 q 153 -3 179 -15 q 97 39 126 8 q 44 135 44 92 l 44 433 q 121 544 44 508 q 73 575 94 549 q 51 629 51 601 l 51 867 q 99 971 51 919 q 155 1013 125 1000 q 228 1025 185 1025 q 299 1013 265 1025 q 359 981 333 1001 q 400 933 385 960 q 415 875 415 906 l 415 699 q 416 691 418 697 q 411 683 414 685 q 406 682 410 682 l 278 682 q 268 699 268 682 l 268 838 q 225 889 268 889 q 182 833 182 889 l 182 653 q 196 619 182 629 q 249 604 210 608 l 249 460 z "},"'":{"ha":186,"x_min":49,"x_max":138,"o":"m 128 1129 q 138 1117 138 1129 l 124 881 q 115 869 124 869 l 71 869 q 60 881 60 869 l 49 1117 q 58 1129 49 1129 l 128 1129 z "},"(":{"ha":300,"x_min":32,"x_max":264,"o":"m 256 -265 l 239 -267 l 235 -267 q 171 -261 196 -267 q 124 -240 146 -256 q 58 -167 83 -215 q 32 -69 32 -118 l 32 838 q 47 909 32 876 q 86 965 61 942 q 146 1002 111 989 q 222 1015 181 1015 q 242 1015 233 1015 q 264 1011 251 1014 l 264 815 q 215 874 261 874 q 175 819 175 874 l 175 -72 q 221 -124 175 -124 q 252 -111 243 -124 q 264 -67 261 -99 l 264 -264 l 256 -265 z "},")":{"ha":300,"x_min":33,"x_max":265,"o":"m 33 -67 q 45 -111 36 -99 q 76 -124 54 -124 q 122 -72 122 -124 l 122 819 q 82 874 122 874 q 33 815 36 874 l 33 1011 q 55 1015 46 1014 q 75 1015 64 1015 q 151 1002 117 1015 q 211 965 186 989 q 251 909 236 942 q 265 838 265 876 l 265 -69 q 258 -122 265 -96 q 236 -172 250 -149 q 204 -215 222 -196 q 164 -246 186 -233 q 122 -262 144 -257 q 63 -267 99 -267 l 58 -267 l 42 -265 l 33 -264 l 33 -67 z "},"*":{"ha":546,"x_min":28,"x_max":514,"o":"m 363 746 l 360 729 l 453 603 l 372 544 l 279 675 l 267 675 l 171 546 l 90 604 l 186 733 l 179 746 l 28 796 l 58 889 l 210 840 l 221 849 l 221 1008 l 321 1008 l 321 849 l 332 840 l 483 889 l 514 796 l 363 746 z "},"+":{"ha":504,"x_min":28,"x_max":468,"o":"m 49 351 q 28 371 28 351 l 28 460 q 49 479 28 479 l 185 479 l 185 617 q 204 638 185 638 l 293 638 q 313 617 313 638 l 313 479 l 449 479 q 468 460 468 479 l 468 371 q 449 351 468 351 l 313 351 l 313 217 q 293 197 313 197 l 204 197 q 185 217 185 197 l 185 351 l 49 351 z "},",":{"ha":258,"x_min":17,"x_max":242,"o":"m 103 -18 q 108 -3 106 -6 q 118 0 111 0 l 232 0 q 242 -8 242 0 q 239 -18 242 -12 l 122 -393 q 103 -410 118 -410 l 26 -410 q 17 -394 17 -410 l 17 -392 l 17 -386 q 18 -382 18 -383 l 103 -18 z "},"-":{"ha":499,"x_min":28,"x_max":468,"o":"m 449 417 q 468 397 468 417 l 468 308 q 449 289 468 289 l 49 289 q 28 308 28 289 l 28 397 q 49 417 28 417 l 449 417 z "},".":{"ha":219,"x_min":28,"x_max":193,"o":"m 108 151 q 168 127 143 151 q 193 67 193 103 q 168 10 193 35 q 108 -14 143 -14 q 51 10 75 -14 q 28 68 28 33 q 51 127 28 103 q 108 151 75 151 z "},"/":{"ha":535,"x_min":4,"x_max":532,"o":"m 110 -393 q 90 -410 106 -410 l 14 -410 q 4 -394 4 -410 l 4 -392 l 4 -386 q 6 -382 6 -383 q 165 142 86 -118 q 325 668 244 403 q 365 799 344 733 q 404 932 385 864 q 413 962 408 947 q 422 992 417 976 q 438 1011 426 1011 l 522 1011 q 532 1001 532 1011 q 529 992 532 997 l 110 -393 z "},":":{"ha":219,"x_min":28,"x_max":193,"o":"m 108 583 q 168 559 143 583 q 193 499 193 535 q 168 442 193 467 q 108 418 143 418 q 51 442 75 418 q 28 500 28 465 q 51 559 28 535 q 108 583 75 583 m 108 151 q 168 127 143 151 q 193 67 193 103 q 168 10 193 35 q 108 -14 143 -14 q 51 10 75 -14 q 28 68 28 33 q 51 127 28 103 q 108 151 75 151 z "},";":{"ha":276,"x_min":17,"x_max":251,"o":"m 103 -18 q 108 -3 106 -6 q 118 0 111 0 l 232 0 l 233 0 l 232 0 q 229 -1 231 -1 q 220 -6 222 -4 q 218 -10 218 -7 q 215 -18 218 -15 l 122 -393 q 103 -410 118 -410 l 26 -410 q 17 -394 17 -410 l 17 -392 l 17 -386 q 18 -382 18 -383 l 103 -18 m 167 583 q 226 559 201 583 q 251 499 251 535 q 226 442 251 467 q 167 418 201 418 q 110 442 133 418 q 86 499 86 465 q 109 559 86 535 q 167 583 132 583 z "},"<":{"ha":501,"x_min":26,"x_max":471,"o":"m 26 336 l 26 506 l 471 624 l 471 494 l 193 421 l 471 346 l 471 217 l 26 336 z "},"=":{"ha":506,"x_min":28,"x_max":468,"o":"m 449 596 q 468 576 468 596 l 468 488 q 449 468 468 468 l 49 468 q 28 488 28 468 l 28 576 q 49 596 28 596 l 449 596 m 449 361 q 468 342 468 361 l 468 253 q 449 233 468 233 l 49 233 q 28 253 28 233 l 28 342 q 49 361 28 361 l 449 361 z "},">":{"ha":501,"x_min":26,"x_max":471,"o":"m 26 346 l 304 421 l 26 494 l 26 624 l 471 506 l 471 336 l 26 217 l 26 346 z "},"?":{"ha":390,"x_min":28,"x_max":363,"o":"m 175 151 q 235 127 210 151 q 260 67 260 103 q 235 10 260 35 q 175 -14 210 -14 q 118 10 142 -14 q 94 68 94 33 q 118 127 94 103 q 175 151 142 151 m 125 268 q 110 282 110 271 l 110 285 q 178 557 110 426 q 233 710 233 664 l 233 858 q 222 883 233 874 q 193 892 211 892 q 167 881 176 892 q 157 854 157 871 l 157 693 l 28 693 l 28 888 q 83 985 39 950 q 193 1019 126 1019 q 259 1010 228 1019 q 313 983 290 1000 q 349 942 336 965 q 363 892 363 918 l 363 729 q 360 669 363 696 q 350 616 357 642 q 332 564 343 590 q 304 507 321 538 q 265 426 276 453 q 254 388 254 400 l 247 278 q 229 268 244 268 l 194 268 l 125 268 z "},"@":{"ha":872,"x_min":46,"x_max":824,"o":"m 583 742 q 593 725 593 742 l 593 104 q 653 160 626 125 q 700 243 681 196 q 731 344 719 290 q 742 457 742 399 q 719 644 742 558 q 657 791 697 729 q 561 888 617 853 q 439 922 506 922 q 310 883 368 922 q 210 772 251 843 q 145 601 168 700 q 122 381 122 501 q 147 172 122 268 q 213 7 171 76 q 314 -102 256 -62 q 442 -142 372 -142 q 510 -133 479 -142 q 576 -101 540 -124 q 586 -96 582 -99 q 593 -92 590 -93 l 593 -182 q 569 -193 586 -183 q 508 -220 538 -212 q 440 -228 478 -228 q 279 -184 351 -228 q 155 -61 207 -140 q 74 130 103 18 q 46 378 46 242 q 74 639 46 522 q 153 838 101 756 q 279 964 206 919 q 444 1008 353 1008 q 602 970 532 1008 q 722 860 672 932 q 797 687 771 789 q 824 458 824 585 q 765 167 824 285 q 593 0 706 50 l 497 0 l 483 54 q 385 -14 464 -14 q 297 21 329 -14 q 264 114 264 56 l 264 654 q 273 683 264 665 q 294 717 282 701 q 367 750 324 750 q 411 740 392 750 q 453 703 431 729 q 467 675 465 688 l 483 742 l 583 742 m 469 579 q 456 604 469 592 q 428 617 443 617 q 402 605 413 617 q 392 578 392 593 l 392 143 q 432 92 392 92 q 469 144 469 92 l 469 579 z "},"A":{"ha":508,"x_min":28,"x_max":481,"o":"m 286 278 q 292 290 292 278 q 288 318 290 296 q 280 387 285 340 q 266 509 275 433 q 244 700 257 585 l 200 290 q 204 278 200 278 l 286 278 m 183 149 l 163 15 q 147 0 163 0 l 35 0 q 28 11 28 0 l 171 982 q 176 1003 171 994 q 192 1011 182 1011 l 304 1011 q 315 1006 311 1011 q 321 986 318 1001 l 478 32 l 479 26 q 481 15 481 22 q 469 0 481 0 l 349 0 q 339 5 342 0 q 333 25 336 10 q 329 47 332 31 q 324 83 326 64 q 317 119 321 101 q 313 149 314 138 l 183 149 z "},"B":{"ha":411,"x_min":28,"x_max":383,"o":"m 157 132 q 169 121 157 121 l 210 121 q 239 135 228 121 q 250 172 250 149 l 250 410 q 242 437 250 425 q 222 454 235 449 l 157 454 l 157 132 m 222 579 q 250 628 250 593 l 250 833 q 239 868 250 854 q 210 882 228 882 l 169 882 q 157 869 157 882 l 157 579 l 222 579 m 383 632 q 363 565 383 596 q 311 519 343 535 q 379 425 379 490 l 379 121 q 343 33 379 67 q 247 0 307 0 l 49 0 q 28 19 28 0 l 28 994 q 39 1011 28 1011 l 258 1011 q 361 957 329 1011 q 377 918 371 939 q 383 882 383 897 l 383 632 z "},"C":{"ha":417,"x_min":29,"x_max":389,"o":"m 376 375 q 389 356 389 371 l 389 165 q 382 125 389 150 q 365 82 375 100 q 206 -11 318 -11 q 74 45 118 -11 q 29 210 29 101 l 29 831 q 35 880 29 854 q 50 926 40 906 q 204 1024 92 1024 q 338 967 288 1024 q 389 819 389 911 l 389 693 q 376 678 389 678 l 261 678 q 256 690 256 678 l 256 818 q 241 858 256 840 q 207 875 226 875 q 173 858 188 875 q 158 818 158 842 l 158 174 q 172 139 158 153 q 207 125 186 125 q 242 139 228 125 q 256 174 256 153 l 256 356 q 268 375 256 375 l 376 375 z "},"D":{"ha":411,"x_min":28,"x_max":386,"o":"m 249 832 q 238 867 249 853 q 208 881 226 881 l 164 881 q 157 872 157 881 l 157 132 q 168 119 157 119 l 208 119 q 238 134 226 119 q 249 172 249 149 l 249 832 m 386 179 q 351 47 386 94 q 253 0 315 0 l 47 0 q 28 19 28 0 l 28 990 q 40 1011 28 1011 l 229 1011 q 333 971 290 1011 q 386 864 375 931 l 386 179 z "},"E":{"ha":338,"x_min":28,"x_max":310,"o":"m 181 890 q 168 878 168 890 l 168 579 l 310 579 l 310 443 l 168 443 l 168 140 q 181 129 168 129 l 310 129 l 310 0 l 47 0 q 28 19 28 0 l 28 994 q 38 1011 28 1011 l 310 1011 l 310 890 l 181 890 z "},"F":{"ha":338,"x_min":28,"x_max":310,"o":"m 310 890 l 181 890 q 168 878 168 890 l 168 579 l 310 579 l 310 443 l 168 443 l 168 19 q 149 0 168 0 l 47 0 q 28 19 28 0 l 28 994 q 38 1011 28 1011 l 310 1011 l 310 890 z "},"G":{"ha":411,"x_min":28,"x_max":386,"o":"m 258 683 q 249 701 249 686 l 249 839 q 206 881 249 881 q 173 868 185 881 q 161 835 161 856 l 161 172 q 174 133 161 149 q 208 117 188 117 q 240 131 228 117 q 253 168 253 146 l 253 428 l 208 428 l 208 568 l 378 568 q 386 544 386 563 l 386 164 q 379 116 386 142 q 360 68 372 90 q 210 -12 315 -12 q 44 106 86 -12 q 33 150 38 125 q 28 193 28 175 l 28 868 q 88 983 42 942 q 204 1025 135 1025 q 325 981 275 1025 q 386 864 375 938 l 386 694 q 378 682 386 682 l 261 682 l 258 683 z "},"H":{"ha":410,"x_min":28,"x_max":382,"o":"m 253 442 l 157 442 l 157 0 l 47 0 q 28 19 28 0 l 28 990 q 44 1011 28 1011 l 157 1011 l 157 582 l 253 582 l 253 1011 l 367 1011 q 382 990 382 1011 l 382 19 q 363 0 382 0 l 253 0 l 253 442 z "},"I":{"ha":196,"x_min":28,"x_max":168,"o":"m 168 19 q 149 0 168 0 l 47 0 q 28 19 28 0 l 28 994 q 38 1011 28 1011 l 158 1011 q 168 994 168 1011 l 168 19 z "},"J":{"ha":250,"x_min":10,"x_max":226,"o":"m 10 117 l 54 117 q 80 133 69 117 q 90 176 90 150 l 90 994 q 99 1011 90 1011 l 219 1011 q 226 994 226 1011 l 226 168 q 194 46 226 92 q 110 0 163 0 l 10 0 l 10 117 z "},"K":{"ha":482,"x_min":26,"x_max":461,"o":"m 164 522 l 164 0 l 46 0 q 26 19 26 0 l 33 990 q 50 1011 33 1011 l 163 1011 l 163 582 l 293 1011 l 407 1011 q 422 990 422 1011 l 299 550 l 458 19 q 439 0 461 0 l 329 0 l 164 522 z "},"L":{"ha":349,"x_min":28,"x_max":324,"o":"m 307 140 q 324 131 324 140 l 324 10 q 307 0 324 0 l 47 0 q 28 19 28 0 l 28 994 q 38 1011 28 1011 l 158 1011 q 168 994 168 1011 l 168 140 l 307 140 z "},"M":{"ha":690,"x_min":33,"x_max":657,"o":"m 350 314 l 481 1011 l 642 1011 q 657 990 657 1011 l 657 19 q 638 0 657 0 l 529 0 l 529 682 l 408 0 l 293 0 l 160 669 l 160 0 l 53 0 q 33 19 33 0 l 33 990 q 50 1011 33 1011 l 196 1011 l 350 314 z "},"N":{"ha":438,"x_min":28,"x_max":406,"o":"m 390 1011 q 406 990 406 1011 l 406 19 q 386 0 406 0 l 297 0 l 156 531 l 156 0 l 47 0 q 28 19 28 0 l 28 990 q 44 1011 28 1011 l 136 1011 l 281 449 l 281 1011 l 390 1011 z "},"O":{"ha":438,"x_min":25,"x_max":406,"o":"m 261 817 q 215 871 261 871 q 172 817 172 871 l 172 176 q 214 119 172 119 q 248 135 235 119 q 261 176 261 151 l 261 817 m 25 835 q 39 910 25 875 q 77 969 53 944 q 135 1009 101 994 q 207 1024 168 1024 q 285 1009 249 1024 q 348 969 321 994 q 390 908 375 943 q 406 835 406 874 l 406 167 q 392 108 406 140 q 356 47 379 75 q 213 -18 303 -18 q 58 68 110 -18 q 25 181 25 124 l 25 835 z "},"P":{"ha":426,"x_min":28,"x_max":403,"o":"m 168 19 q 149 0 168 0 l 47 0 q 28 19 28 0 l 28 994 q 38 1011 28 1011 l 238 1011 q 358 968 313 1011 q 403 851 403 925 l 403 599 q 372 494 403 531 q 267 440 340 457 l 168 440 l 168 19 m 219 569 q 269 628 269 569 l 269 824 q 235 874 269 874 l 167 874 l 167 569 l 219 569 z "},"Q":{"ha":426,"x_min":26,"x_max":401,"o":"m 261 808 q 206 881 261 881 q 163 811 163 881 l 163 183 q 211 118 163 118 q 261 192 261 118 l 261 808 m 111 -35 q 132 -61 118 -54 q 171 -68 146 -68 l 313 -68 q 368 -79 354 -68 q 382 -126 382 -90 l 382 -201 q 359 -197 375 -199 q 303 -196 343 -196 l 160 -196 q 92 -174 110 -196 q 79 -148 85 -165 q 76 -124 74 -131 q 78 -122 78 -122 l 78 -35 l 111 -35 m 26 813 q 35 887 26 850 q 63 954 44 924 q 210 1024 103 1024 q 360 960 317 1024 q 390 891 379 929 q 401 811 401 853 l 401 182 q 390 115 401 150 q 358 53 378 81 q 213 -8 314 -8 q 117 14 153 -8 q 56 89 82 36 q 26 196 26 149 l 26 813 z "},"R":{"ha":438,"x_min":28,"x_max":407,"o":"m 168 19 q 149 0 168 0 l 47 0 q 28 19 28 0 l 28 994 q 38 1011 28 1011 l 257 1011 q 315 999 288 1011 q 363 965 343 986 q 395 917 383 944 q 407 857 407 889 l 407 635 q 328 536 407 564 q 404 440 404 521 l 404 0 l 303 0 q 258 82 258 0 l 258 404 q 215 453 258 453 l 168 453 l 168 19 m 204 576 q 258 631 258 576 l 258 836 q 247 866 258 853 q 219 879 235 879 l 169 879 l 169 576 l 204 576 z "},"S":{"ha":432,"x_min":25,"x_max":404,"o":"m 257 819 q 214 868 257 868 q 176 845 186 868 q 165 764 165 822 l 165 754 q 188 665 165 706 q 265 578 211 625 q 373 463 342 511 q 404 360 404 414 l 404 153 q 388 97 404 128 q 347 39 372 65 q 210 -18 290 -18 q 74 41 122 -18 q 25 204 25 100 l 25 356 q 35 372 25 372 l 161 372 q 171 356 171 372 l 171 175 q 180 136 171 147 q 213 125 189 125 q 256 178 256 125 l 256 324 q 250 359 256 338 q 235 404 244 381 q 195 461 221 435 q 114 528 169 488 q 46 607 67 563 q 25 722 25 651 l 25 849 q 39 903 25 874 q 76 961 53 933 q 215 1024 132 1024 q 364 947 308 1024 q 391 898 381 925 q 401 851 401 871 l 401 694 q 382 675 401 675 l 276 675 q 257 694 257 675 l 257 772 l 257 819 z "},"T":{"ha":390,"x_min":14,"x_max":375,"o":"m 265 19 q 246 0 265 0 l 143 0 q 124 19 124 0 l 124 879 l 14 879 l 14 994 q 24 1011 14 1011 l 365 1011 q 375 994 375 1011 l 375 879 l 265 879 l 265 19 z "},"U":{"ha":438,"x_min":31,"x_max":407,"o":"m 407 197 q 360 38 407 92 q 224 -17 314 -17 q 83 40 135 -17 q 31 194 31 97 l 31 993 q 40 1011 31 1011 l 154 1011 q 164 993 164 1011 l 164 204 q 218 118 164 118 q 272 204 272 118 l 272 993 q 282 1011 272 1011 l 397 1011 q 407 993 407 1011 l 407 197 z "},"V":{"ha":479,"x_min":10,"x_max":465,"o":"m 10 990 q 26 1011 10 1011 l 156 1011 l 239 294 l 315 1011 l 450 1011 q 465 990 465 1011 l 318 19 q 299 0 318 0 l 179 0 q 160 19 160 0 l 10 990 z "},"W":{"ha":736,"x_min":17,"x_max":717,"o":"m 615 19 q 596 0 615 0 l 465 0 l 368 649 l 264 0 l 149 0 q 129 19 129 0 l 17 990 q 33 1011 17 1011 l 163 1011 l 217 438 l 297 1011 l 444 1011 l 522 424 l 576 1011 l 701 1011 q 717 990 717 1011 l 615 19 z "},"X":{"ha":489,"x_min":13,"x_max":485,"o":"m 485 19 q 465 0 485 0 l 335 0 l 246 367 l 160 0 l 32 0 q 13 19 13 0 l 156 510 l 13 994 q 22 1011 13 1011 l 165 1011 l 246 678 l 329 1011 l 468 1011 q 478 994 478 1011 l 338 514 l 485 19 z "},"Y":{"ha":496,"x_min":0,"x_max":496,"o":"m 311 331 l 311 19 q 292 0 311 0 l 190 0 q 171 19 171 0 l 171 331 l 0 994 q 10 1011 0 1011 l 158 1011 l 243 567 l 338 1011 l 486 1011 q 496 994 496 1011 l 311 331 z "},"Z":{"ha":383,"x_min":14,"x_max":379,"o":"m 347 115 q 364 106 364 115 l 364 10 q 347 0 364 0 l 14 0 l 200 871 l 31 871 q 14 881 14 871 l 14 1001 q 31 1011 14 1011 l 379 1011 l 182 115 l 347 115 z "},"[":{"ha":356,"x_min":46,"x_max":321,"o":"m 304 1088 q 321 1078 321 1088 l 321 960 q 304 950 321 950 l 183 950 l 183 -129 l 304 -129 q 321 -139 321 -129 l 321 -257 q 304 -267 321 -267 l 46 -267 l 46 1088 l 183 1088 l 304 1088 z "},"\\":{"ha":535,"x_min":6,"x_max":533,"o":"m 7 993 l 6 1001 q 15 1011 6 1011 l 101 1011 q 115 992 111 1011 q 122 961 118 976 q 133 932 126 946 q 162 847 149 890 q 186 756 175 803 q 196 725 193 733 q 200 712 199 717 q 203 699 201 707 q 213 668 206 690 q 372 142 292 403 q 532 -382 451 -119 q 533 -394 533 -385 q 524 -410 533 -410 l 447 -410 q 428 -393 432 -410 l 8 992 l 7 993 z "},"]":{"ha":356,"x_min":43,"x_max":318,"o":"m 318 1088 l 318 -267 l 60 -267 q 43 -257 43 -267 l 43 -139 q 60 -129 43 -129 l 181 -129 l 181 950 l 60 950 q 43 960 43 950 l 43 1078 q 60 1088 43 1088 l 181 1088 l 318 1088 z "},"^":{"ha":456,"x_min":38,"x_max":410,"o":"m 321 1099 q 333 1085 333 1099 l 408 822 q 410 818 410 821 q 397 807 410 807 l 333 807 q 317 819 321 807 q 308 839 311 832 q 299 861 306 846 q 269 923 282 897 q 249 968 257 949 q 234 1002 240 988 q 222 1029 228 1017 q 209 996 215 1011 q 193 960 203 981 q 169 908 183 939 q 135 832 156 878 l 131 822 l 131 821 l 129 819 q 113 807 126 807 l 49 807 q 38 818 38 807 l 38 822 l 113 1085 q 125 1099 117 1099 l 224 1099 l 321 1099 z "},"_":{"ha":717,"x_min":28,"x_max":693,"o":"m 674 -61 q 693 -81 693 -61 l 693 -169 q 674 -189 693 -189 l 49 -189 q 28 -169 28 -189 l 28 -81 q 49 -61 28 -61 l 674 -61 z "},"`":{"ha":271,"x_min":46,"x_max":242,"o":"m 240 822 l 242 818 q 229 807 242 807 l 165 807 q 149 819 153 807 l 46 1085 l 46 1086 l 46 1088 q 56 1099 46 1099 l 151 1099 q 165 1085 164 1099 l 240 822 z "},"a":{"ha":415,"x_min":42,"x_max":371,"o":"m 247 579 q 234 604 247 592 q 206 617 221 617 q 180 605 190 617 q 169 578 169 593 l 169 143 q 210 92 169 92 q 247 144 247 92 l 247 579 m 361 742 q 371 725 371 742 l 371 19 q 351 0 371 0 l 276 0 l 263 54 q 229 4 256 22 q 163 -14 203 -14 q 74 21 107 -14 q 42 114 42 56 l 42 654 q 50 681 42 665 q 74 714 58 697 q 144 750 106 750 q 177 743 160 750 q 209 726 194 736 q 233 701 224 715 q 246 675 243 688 l 261 742 l 361 742 z "},"b":{"ha":415,"x_min":35,"x_max":375,"o":"m 250 575 q 207 619 250 619 q 177 608 189 619 q 165 581 165 596 l 165 135 q 207 93 165 93 q 238 107 226 93 q 250 144 250 121 l 250 575 m 54 0 q 35 19 35 0 l 35 992 q 44 1008 35 1008 l 160 1008 q 169 992 169 1008 l 169 685 q 271 750 204 750 q 348 711 321 750 q 375 600 375 672 l 375 89 q 365 56 375 76 q 343 19 356 35 q 260 -14 315 -14 q 207 -4 228 -14 q 163 31 186 6 q 151 50 151 42 l 142 0 l 54 0 z "},"c":{"ha":374,"x_min":26,"x_max":344,"o":"m 332 292 q 344 278 344 288 l 344 119 q 294 24 335 58 q 192 -11 254 -11 q 71 32 115 -11 q 26 150 26 75 l 26 611 q 32 647 26 626 q 49 685 38 668 q 185 756 88 756 q 335 661 301 756 q 342 635 339 650 q 344 611 344 621 l 344 511 q 332 496 344 496 l 238 496 q 225 507 225 496 l 225 594 q 215 622 225 611 q 188 633 204 633 q 153 594 153 633 l 153 150 q 164 117 153 131 q 190 104 175 104 q 215 117 206 104 q 225 150 225 131 l 225 278 q 238 292 225 292 l 332 292 z "},"d":{"ha":413,"x_min":35,"x_max":378,"o":"m 250 583 q 207 626 250 626 q 168 589 168 626 l 168 146 q 181 113 168 126 q 211 100 193 100 q 250 151 250 100 l 250 583 m 251 992 q 261 1008 251 1008 l 368 1008 q 378 992 378 1008 l 378 19 q 358 0 378 0 l 267 0 l 253 43 q 213 -1 240 15 q 150 -17 185 -17 q 64 21 93 -17 q 35 129 35 58 l 35 632 q 65 714 35 675 q 156 750 93 750 q 203 743 186 750 q 236 717 221 736 q 251 689 250 699 l 251 992 z "},"e":{"ha":411,"x_min":42,"x_max":374,"o":"m 172 135 q 185 113 172 125 q 208 101 197 101 q 230 116 218 101 q 242 142 242 131 l 242 256 q 251 272 242 272 l 364 272 q 374 256 374 272 l 374 114 q 360 65 374 89 q 324 24 347 42 q 272 -6 301 6 q 211 -17 243 -17 q 147 -5 178 -17 q 92 26 115 7 q 56 72 69 46 q 42 125 42 97 l 42 617 q 88 714 42 676 q 208 751 135 751 q 285 737 253 751 q 342 690 318 722 q 372 618 372 651 l 372 376 q 363 360 372 360 l 172 360 l 172 135 m 246 596 q 234 622 246 611 q 206 633 222 633 q 174 592 174 633 l 174 476 l 246 476 l 246 596 z "},"f":{"ha":318,"x_min":28,"x_max":290,"o":"m 78 888 q 87 933 78 911 q 111 971 96 954 q 147 998 126 988 q 188 1008 167 1008 l 268 1008 q 282 1003 276 1008 q 288 995 285 1000 q 288 989 290 990 l 288 893 l 283 893 q 265 894 278 894 q 204 839 204 894 l 204 742 l 263 742 q 282 722 282 742 l 282 635 q 263 615 282 615 l 203 615 l 203 19 q 183 0 203 0 l 90 0 q 71 19 71 0 l 71 615 l 49 615 q 28 635 28 615 l 28 722 q 49 742 28 742 l 78 742 l 78 888 z "},"g":{"ha":410,"x_min":35,"x_max":374,"o":"m 354 742 q 374 722 374 742 l 374 -87 q 331 -182 374 -135 q 210 -233 285 -233 q 85 -188 133 -233 q 36 -72 36 -143 l 36 -68 l 164 -68 q 172 -117 164 -104 q 201 -129 179 -129 q 246 -62 246 -129 l 246 42 q 206 1 232 15 q 147 -14 179 -14 q 103 -4 124 -14 q 68 22 83 6 q 44 59 53 38 q 35 106 35 81 l 35 606 q 44 662 35 635 q 70 708 54 689 q 107 740 86 728 q 151 751 128 751 q 207 736 179 751 q 246 700 235 721 l 249 694 l 250 692 q 251 688 251 690 l 261 742 l 354 742 m 167 143 q 181 116 167 128 q 210 104 194 104 q 246 150 246 104 l 246 581 q 206 626 246 626 q 167 581 167 626 l 167 150 l 167 143 z "},"h":{"ha":415,"x_min":42,"x_max":378,"o":"m 167 686 q 207 734 185 719 q 264 749 229 749 q 347 715 315 749 q 378 628 378 682 l 378 19 q 358 0 378 0 l 272 0 q 253 19 253 0 l 253 571 q 210 617 253 617 q 169 561 169 617 l 169 19 q 150 0 169 0 l 61 0 q 42 19 42 0 l 42 992 q 51 1008 42 1008 l 157 1008 q 167 992 167 1008 l 167 686 z "},"i":{"ha":201,"x_min":18,"x_max":183,"o":"m 168 21 q 153 0 168 0 l 51 0 q 32 21 32 0 l 32 725 q 35 737 32 732 q 43 742 39 742 l 161 742 q 168 725 168 742 l 168 21 m 99 1011 q 158 987 133 1011 q 183 926 183 963 q 158 870 183 894 q 99 846 133 846 q 42 869 65 846 q 18 928 18 893 q 42 987 18 963 q 99 1011 65 1011 z "},"j":{"ha":250,"x_min":13,"x_max":225,"o":"m 13 -104 l 44 -104 q 65 -88 57 -104 q 72 -49 72 -72 l 72 725 q 81 742 72 742 l 201 742 q 210 725 210 742 l 210 -57 q 178 -179 210 -133 q 93 -225 146 -225 l 13 -225 l 13 -104 m 142 1011 q 200 987 175 1011 q 225 928 225 963 q 200 872 225 896 q 142 847 175 847 q 85 871 108 847 q 61 929 61 894 q 85 987 61 963 q 142 1011 108 1011 z "},"k":{"ha":421,"x_min":33,"x_max":406,"o":"m 289 356 l 406 19 l 406 18 q 389 0 406 0 l 275 0 l 172 351 l 260 742 l 371 742 q 390 722 390 742 l 289 356 m 165 19 q 146 0 165 0 l 53 0 q 33 19 33 0 l 33 992 q 43 1008 33 1008 l 156 1008 q 165 992 165 1008 l 165 351 l 165 19 z "},"l":{"ha":186,"x_min":28,"x_max":161,"o":"m 161 19 q 142 0 161 0 l 47 0 q 28 19 28 0 l 28 994 q 38 1011 28 1011 l 151 1011 q 161 994 161 1011 l 161 19 z "},"m":{"ha":626,"x_min":33,"x_max":592,"o":"m 151 682 q 192 731 164 713 q 254 749 219 749 q 327 727 299 749 q 360 669 356 706 q 406 731 371 706 q 476 757 440 757 q 561 714 531 757 q 592 593 592 671 l 592 21 q 576 0 592 0 l 482 0 q 463 21 463 0 l 463 571 q 418 626 463 626 q 379 581 379 626 l 379 21 q 364 0 379 0 l 269 0 q 250 21 250 0 l 250 572 q 206 619 250 619 q 167 574 167 619 l 167 21 q 151 0 167 0 l 53 0 q 33 21 33 0 l 33 725 q 37 737 33 732 q 44 742 40 742 l 139 742 l 151 682 z "},"n":{"ha":399,"x_min":33,"x_max":368,"o":"m 154 676 q 264 751 178 751 q 340 724 313 751 q 368 649 368 697 l 368 21 q 353 0 368 0 l 264 0 q 244 21 244 0 l 244 582 q 201 631 244 631 q 158 574 158 631 l 158 21 q 143 0 158 0 l 53 0 q 33 21 33 0 l 33 725 q 37 737 33 732 q 44 742 40 742 l 143 742 l 154 676 z "},"o":{"ha":388,"x_min":29,"x_max":360,"o":"m 233 588 q 193 639 233 639 q 157 588 157 639 l 157 160 q 197 93 157 93 q 225 108 217 93 q 233 160 233 124 l 233 588 m 29 613 q 190 751 29 751 q 322 706 282 751 q 349 659 339 686 q 360 608 360 632 l 360 133 q 325 38 360 83 q 273 -3 303 10 q 199 -17 243 -17 q 73 25 117 -17 q 29 146 29 67 l 29 613 z "},"p":{"ha":406,"x_min":33,"x_max":376,"o":"m 171 -206 q 151 -225 171 -225 l 53 -225 q 33 -206 33 -225 l 33 725 q 43 742 33 742 l 147 742 l 163 688 q 269 751 197 751 q 376 614 376 751 l 376 118 q 345 24 376 61 q 267 -14 314 -14 q 203 4 233 -14 q 171 46 174 22 l 171 -206 m 250 576 q 210 631 250 631 q 179 617 190 631 q 168 581 168 604 l 168 158 q 210 101 168 101 q 250 163 250 101 l 250 576 z "},"q":{"ha":390,"x_min":31,"x_max":363,"o":"m 353 742 q 363 725 363 742 l 363 -206 q 343 -225 363 -225 l 261 -225 q 242 -206 242 -225 l 242 47 q 198 5 228 24 q 142 -14 168 -14 q 106 -5 126 -14 q 71 19 86 4 q 31 133 31 56 l 31 583 q 37 642 31 613 q 54 696 43 672 q 150 750 79 750 q 219 732 189 750 q 254 686 250 714 l 267 742 l 353 742 m 154 164 q 166 130 154 143 q 197 117 178 117 q 236 164 236 117 l 236 574 q 193 638 236 638 q 154 575 154 638 l 154 178 l 154 164 z "},"r":{"ha":315,"x_min":33,"x_max":285,"o":"m 253 611 q 185 590 206 610 q 164 531 164 571 l 164 21 q 149 0 164 0 l 53 0 q 33 21 33 0 l 33 725 q 37 737 33 732 q 44 742 40 742 l 143 742 l 150 681 q 285 749 175 749 l 285 607 l 253 611 z "},"s":{"ha":399,"x_min":29,"x_max":365,"o":"m 236 488 l 236 575 q 196 639 236 639 q 157 564 157 639 q 179 486 157 513 q 186 478 183 482 q 195 471 189 475 q 213 459 201 467 q 244 439 224 451 q 361 250 361 367 l 361 164 q 351 92 361 128 q 324 33 340 57 q 274 -6 304 6 q 193 -18 243 -18 q 56 39 83 -18 q 36 97 43 64 q 29 163 29 129 l 29 285 l 153 285 l 153 156 q 192 100 153 100 q 236 164 236 100 l 236 200 q 238 210 236 204 q 233 253 238 235 q 215 290 229 271 q 172 331 200 308 q 96 388 143 353 q 67 415 79 400 q 49 451 56 431 q 39 500 42 472 q 36 567 36 528 q 41 640 36 613 q 57 686 46 667 q 197 747 92 747 q 278 736 247 747 q 328 696 310 725 q 356 617 347 667 q 365 488 364 567 l 236 488 z "},"t":{"ha":307,"x_min":28,"x_max":278,"o":"m 78 878 q 97 897 78 897 l 183 897 q 203 878 203 897 l 203 742 l 256 742 q 275 722 275 742 l 275 636 q 256 617 275 617 l 203 617 l 203 175 q 205 143 203 154 q 214 126 207 132 q 236 118 221 119 q 278 117 251 117 l 278 -4 l 213 -8 q 165 -4 192 -10 q 124 10 139 1 q 74 131 74 40 l 74 617 l 49 617 q 28 636 28 617 l 28 722 q 49 742 28 742 l 78 742 l 78 878 z "},"u":{"ha":401,"x_min":31,"x_max":368,"o":"m 251 38 q 208 -1 240 14 q 139 -17 175 -17 q 59 28 88 -17 q 31 156 31 74 l 31 725 q 34 737 31 732 q 42 742 38 742 l 151 742 q 158 737 156 742 q 161 725 161 732 l 161 158 q 204 97 161 97 q 243 163 243 97 l 243 725 q 247 737 243 732 q 254 742 250 742 l 358 742 q 365 737 363 742 q 368 725 368 732 l 368 21 q 353 0 368 0 l 268 0 l 251 38 z "},"v":{"ha":424,"x_min":19,"x_max":406,"o":"m 288 19 q 268 0 288 0 l 151 0 q 132 19 132 0 l 19 721 q 36 742 19 742 l 147 742 l 210 292 l 267 742 l 390 742 q 406 721 406 742 l 288 19 z "},"w":{"ha":676,"x_min":25,"x_max":649,"o":"m 560 19 q 540 0 560 0 l 410 0 l 332 464 l 256 0 l 139 0 q 119 19 119 0 l 25 721 q 42 742 25 742 l 156 742 l 199 285 l 265 742 l 401 742 l 472 285 l 515 742 l 633 742 q 649 721 649 742 l 560 19 z "},"x":{"ha":414,"x_min":18,"x_max":394,"o":"m 18 725 q 28 742 18 742 l 154 742 l 214 446 l 260 742 l 385 742 q 394 725 394 742 l 299 360 l 394 19 q 375 0 394 0 l 272 0 l 214 276 l 158 0 l 49 0 q 29 19 29 0 l 118 360 l 18 725 z "},"y":{"ha":410,"x_min":18,"x_max":390,"o":"m 233 -224 l 100 -224 l 138 0 l 18 725 q 28 742 18 742 l 146 742 l 204 272 l 263 742 l 381 742 q 390 725 390 742 l 233 -224 z "},"z":{"ha":340,"x_min":22,"x_max":317,"o":"m 300 121 q 317 111 317 121 l 317 10 q 300 0 317 0 l 22 0 l 22 111 l 175 619 l 39 619 q 22 629 22 619 l 22 732 q 39 742 22 742 l 314 742 l 314 618 l 161 121 l 300 121 z "},"{":{"ha":367,"x_min":32,"x_max":339,"o":"m 49 317 q 32 326 32 317 l 32 447 q 49 457 32 457 l 107 457 l 107 833 q 122 905 107 872 q 161 961 136 938 q 221 998 186 985 q 297 1011 256 1011 q 316 1010 308 1011 q 339 1007 324 1010 l 339 811 q 290 869 336 869 q 250 815 250 869 l 250 -72 q 296 -125 250 -125 q 327 -112 318 -125 q 339 -68 336 -99 l 339 -264 l 308 -267 q 244 -261 268 -267 q 199 -240 221 -256 q 133 -166 158 -214 q 107 -71 107 -118 l 107 317 l 49 317 z "},"|":{"ha":183,"x_min":28,"x_max":156,"o":"m 156 -247 q 136 -267 156 -267 l 47 -267 q 28 -247 28 -267 l 28 990 q 47 1011 28 1011 l 136 1011 q 156 990 156 1011 l 156 -247 z "},"}":{"ha":367,"x_min":33,"x_max":340,"o":"m 265 -71 q 258 -122 265 -96 q 236 -171 250 -147 q 204 -214 222 -194 q 165 -246 186 -233 q 124 -262 146 -257 q 64 -267 101 -267 l 33 -264 l 33 -68 q 45 -112 36 -99 q 76 -125 54 -125 q 122 -72 122 -125 l 122 815 q 82 869 122 869 q 33 811 36 869 l 33 1007 q 56 1010 49 1010 q 75 1011 64 1011 q 151 998 117 1011 q 211 961 186 985 q 251 905 236 938 q 265 833 265 872 l 265 457 l 324 457 q 340 447 340 457 l 340 326 q 324 317 340 317 l 265 317 l 265 -71 z "},"~":{"ha":524,"x_min":56,"x_max":446,"o":"m 442 425 l 442 424 q 440 396 446 415 q 422 368 433 376 q 357 351 401 351 l 156 351 q 94 317 111 351 l 61 317 l 61 406 q 60 407 61 407 q 64 434 56 414 q 83 463 72 454 q 144 481 103 481 l 344 481 q 385 488 372 481 q 406 514 399 494 l 442 514 l 442 425 z "}," ":{"ha":278,"x_min":0,"x_max":0,"o":""},"¡":{"ha":231,"x_min":28,"x_max":201,"o":"m 117 751 q 174 728 151 751 q 197 669 197 704 q 174 610 197 635 q 117 586 150 586 q 57 610 82 586 q 32 671 32 635 q 57 727 32 703 q 117 751 82 751 m 169 471 l 201 -254 q 189 -274 201 -274 l 44 -274 q 28 -258 28 -274 l 64 471 l 169 471 z "},"¢":{"ha":374,"x_min":26,"x_max":344,"o":"m 228 -140 q 215 -151 228 -151 l 164 -151 q 151 -140 151 -151 l 151 -7 q 26 150 26 22 l 26 611 q 32 644 26 625 q 44 679 38 664 q 85 727 61 711 q 151 753 108 743 l 151 876 q 164 888 151 888 l 215 888 q 228 876 228 888 l 228 751 q 282 731 263 743 q 317 696 301 719 q 337 654 329 678 q 344 611 344 631 l 344 511 q 332 496 344 496 l 238 496 q 225 507 225 496 l 225 594 q 215 622 225 611 q 188 633 204 633 q 153 594 153 633 l 153 150 q 164 117 153 131 q 190 104 175 104 q 215 117 206 104 q 225 150 225 129 l 225 278 q 238 292 225 292 l 332 292 q 344 278 344 288 l 344 119 q 305 33 335 67 q 228 -8 275 0 l 228 -140 z "},"£":{"ha":529,"x_min":29,"x_max":503,"o":"m 486 133 q 503 124 503 133 l 503 10 q 486 0 503 0 l 114 0 l 114 429 l 46 429 q 29 439 29 429 l 29 557 q 46 567 29 567 l 114 567 l 114 833 q 128 907 114 872 q 167 967 142 942 q 225 1008 192 993 q 296 1022 258 1022 q 436 967 381 1022 q 477 909 464 939 q 494 833 490 879 l 351 815 q 338 857 349 844 q 304 869 328 869 q 261 815 261 869 l 261 567 l 343 567 q 360 557 360 567 l 360 439 q 343 429 360 429 l 261 429 l 261 133 l 486 133 z "},"¤":{"ha":610,"x_min":33,"x_max":572,"o":"m 306 851 q 245 838 274 851 q 196 803 217 825 q 163 753 175 782 q 150 690 150 724 q 163 628 150 657 q 196 576 175 599 q 244 542 217 554 q 304 529 272 529 q 363 542 335 529 q 411 576 390 554 q 444 628 432 599 q 456 692 456 658 q 444 753 456 725 q 411 804 432 782 q 363 839 390 826 q 306 851 336 851 m 93 539 q 42 690 42 603 q 93 842 42 786 l 33 903 l 92 961 l 150 901 q 303 951 214 951 q 456 901 390 951 l 514 961 l 572 903 l 513 842 q 564 690 564 786 q 513 539 564 603 l 572 478 l 517 422 l 457 482 q 303 429 392 429 q 149 482 214 429 l 89 422 l 33 478 l 93 539 z "},"¥":{"ha":496,"x_min":-1,"x_max":494,"o":"m 119 526 l 54 526 q 33 546 33 526 l 33 635 q 54 654 33 654 l 86 654 l -1 994 q 8 1011 -1 1011 l 157 1011 l 225 654 l 260 654 l 336 1011 l 485 1011 q 494 994 494 1011 l 400 654 l 454 654 q 474 635 474 654 l 474 546 q 454 526 474 526 l 364 526 l 340 442 l 454 442 q 474 422 474 442 l 474 333 q 454 314 474 314 l 310 314 l 310 19 q 290 0 310 0 l 189 0 q 169 19 169 0 l 169 314 l 54 314 q 33 333 33 314 l 33 422 q 54 442 33 442 l 140 442 l 119 526 z "},"¦":{"ha":183,"x_min":28,"x_max":156,"o":"m 156 -247 q 136 -267 156 -267 l 47 -267 q 28 -247 28 -267 l 28 256 q 47 276 28 276 l 136 276 q 156 256 156 276 l 156 -247 m 156 488 q 136 468 156 468 l 47 468 q 28 488 28 468 l 28 990 q 47 1011 28 1011 l 136 1011 q 156 990 156 1011 l 156 488 z "},"§":{"ha":465,"x_min":44,"x_max":426,"o":"m 426 326 q 403 269 426 299 q 338 217 379 240 q 374 183 361 197 q 399 156 388 169 q 418 115 410 139 q 426 76 426 92 l 426 -90 q 368 -182 426 -136 q 306 -217 338 -206 q 232 -228 274 -228 q 94 -181 143 -228 q 44 -49 44 -135 l 44 67 q 64 88 44 88 l 172 88 q 192 67 192 88 l 192 -72 q 201 -103 192 -94 q 233 -112 210 -112 q 276 -69 276 -112 l 276 47 q 244 128 276 92 q 133 213 213 165 q 44 368 44 265 l 44 469 q 82 549 44 513 q 179 603 119 586 q 161 615 171 610 q 139 628 151 621 l 133 631 q 44 786 44 678 l 44 888 q 99 978 44 928 q 160 1017 129 1006 q 238 1028 192 1028 q 375 982 325 1028 q 411 937 399 961 q 424 890 424 913 l 424 768 q 404 749 424 749 l 297 749 q 278 768 278 749 l 278 865 q 232 904 278 904 q 199 893 208 904 q 189 854 189 882 l 189 853 l 188 842 q 186 821 188 825 l 186 813 q 192 774 186 792 q 212 738 197 756 q 250 699 226 719 q 311 653 274 679 q 398 574 374 608 q 425 493 422 540 l 426 486 l 426 326 m 192 344 q 201 313 192 322 q 233 304 210 304 q 276 347 276 304 l 276 447 q 231 486 276 486 q 192 467 200 486 l 192 344 z "},"¨":{"ha":443,"x_min":54,"x_max":399,"o":"m 132 1008 q 188 985 164 1008 q 213 929 213 961 q 190 873 213 896 q 133 850 167 850 q 78 874 101 850 q 54 929 54 897 q 77 985 54 963 q 132 1008 100 1008 m 318 1008 q 374 985 350 1008 q 399 929 399 961 q 376 873 399 896 q 319 850 353 850 q 264 874 288 850 q 240 929 240 897 q 263 985 240 963 q 318 1008 286 1008 z "},"©":{"ha":1061,"x_min":3,"x_max":1058,"o":"m 660 411 q 669 396 669 407 l 669 257 q 665 228 669 246 q 654 199 660 211 q 536 129 618 129 q 407 290 407 129 l 407 743 q 442 846 407 807 q 535 885 476 885 q 632 843 594 885 q 669 735 669 801 l 669 643 q 660 632 669 632 l 576 632 q 572 640 572 632 l 572 735 q 562 763 572 750 q 536 775 551 775 q 512 763 522 775 q 501 735 501 750 l 501 264 q 512 238 501 249 q 538 228 522 228 q 563 238 553 228 q 572 264 572 249 l 572 396 q 581 411 572 411 l 660 411 m 531 951 q 356 916 438 951 q 214 820 275 881 q 117 678 153 760 q 82 506 82 597 q 117 329 82 411 q 213 186 151 247 q 355 90 274 125 q 531 54 436 54 q 706 90 624 54 q 848 185 788 125 q 944 328 908 246 q 979 503 979 410 q 944 678 979 596 q 848 820 908 760 q 706 916 788 881 q 531 951 624 951 m 531 1031 q 736 989 640 1031 q 903 876 832 947 q 1017 708 975 804 q 1058 503 1058 613 q 1017 297 1058 393 q 903 130 975 201 q 736 17 832 58 q 531 -25 640 -25 q 326 17 422 -25 q 158 129 229 58 q 44 295 86 200 q 3 499 3 390 q 44 707 3 610 q 156 876 85 804 q 324 989 228 947 q 531 1031 421 1031 z "},"ª":{"ha":338,"x_min":46,"x_max":279,"o":"m 267 532 q 279 519 279 532 l 279 467 q 267 454 279 454 l 58 454 q 46 467 46 454 l 46 519 q 58 532 46 532 l 267 532 m 185 911 q 177 926 185 918 q 161 933 169 933 q 139 911 139 933 l 139 650 q 163 619 139 619 q 185 650 185 619 l 185 911 m 254 1008 q 260 999 260 1008 l 260 575 q 247 564 260 564 l 203 564 l 194 596 q 175 567 192 578 q 135 556 158 556 q 82 576 101 556 q 63 632 63 597 l 63 957 q 68 976 63 967 q 83 994 74 986 q 103 1008 92 1003 q 124 1014 114 1014 q 149 1008 139 1014 q 172 990 160 1003 q 185 969 183 975 l 193 1008 l 254 1008 z "},"«":{"ha":671,"x_min":29,"x_max":651,"o":"m 360 521 q 374 533 360 531 l 636 608 l 640 610 q 651 597 651 610 l 651 533 q 639 517 651 521 q 613 504 636 515 q 546 474 589 493 q 476 442 506 454 q 429 422 446 429 q 463 408 446 415 q 501 392 479 401 q 551 369 522 382 q 618 339 579 357 q 634 331 632 332 q 639 329 636 331 q 651 313 651 325 l 651 249 q 640 236 651 236 l 636 238 l 374 313 q 360 325 360 315 l 360 424 l 360 521 m 29 521 q 43 533 29 531 l 306 608 l 310 610 q 321 597 321 610 l 321 533 q 308 517 321 521 q 281 503 304 514 q 215 474 258 493 q 145 442 175 454 q 99 422 115 429 q 132 408 115 415 q 170 392 149 401 q 220 369 192 382 q 288 339 249 357 q 303 331 301 332 q 308 329 306 331 q 321 313 321 325 l 321 249 q 310 236 321 236 l 306 238 l 43 313 q 29 325 29 315 l 29 424 l 29 521 z "},"¬":{"ha":592,"x_min":28,"x_max":554,"o":"m 49 526 q 28 546 28 526 l 28 635 q 49 654 28 654 l 535 654 q 554 633 554 654 l 554 342 q 535 322 554 322 l 446 322 q 426 342 426 322 l 426 526 l 49 526 z "},"­":{"ha":499,"x_min":28,"x_max":468,"o":"m 449 417 q 468 397 468 417 l 468 308 q 449 289 468 289 l 49 289 q 28 308 28 289 l 28 397 q 49 417 28 417 l 449 417 z "},"®":{"ha":1061,"x_min":3,"x_max":1058,"o":"m 531 951 q 356 916 438 951 q 214 820 275 881 q 117 678 153 760 q 82 506 82 597 q 117 329 82 411 q 213 186 151 247 q 355 90 274 125 q 531 54 436 54 q 706 90 624 54 q 848 185 788 125 q 944 328 908 246 q 979 503 979 410 q 944 678 979 596 q 848 820 908 760 q 706 916 788 881 q 531 951 624 951 m 531 1031 q 736 989 640 1031 q 903 876 832 947 q 1017 708 975 804 q 1058 503 1058 613 q 1017 297 1058 393 q 903 130 975 201 q 736 17 832 58 q 531 -25 640 -25 q 326 17 422 -25 q 158 129 229 58 q 44 295 86 200 q 3 499 3 390 q 44 707 3 610 q 156 876 85 804 q 324 989 228 947 q 531 1031 421 1031 m 503 150 q 488 136 503 136 l 414 136 q 400 150 400 136 l 400 863 q 407 875 400 875 l 567 875 q 644 842 613 875 q 676 763 676 810 l 676 600 q 619 528 676 547 q 675 458 675 517 l 675 136 l 601 136 q 568 196 568 136 l 568 432 q 538 467 568 467 l 503 467 l 503 150 m 529 557 q 568 597 568 557 l 568 747 q 560 769 568 760 q 540 778 551 778 l 503 778 l 503 557 l 529 557 z "},"¯":{"ha":563,"x_min":19,"x_max":542,"o":"m 531 1003 q 542 988 542 1003 l 542 918 q 531 903 542 903 l 32 903 q 19 918 19 903 l 19 988 q 32 1003 19 1003 l 531 1003 z "},"°":{"ha":379,"x_min":35,"x_max":343,"o":"m 190 1028 q 127 1001 154 1028 q 100 939 100 975 q 126 876 100 903 q 189 850 153 850 q 251 876 225 850 q 278 939 278 903 q 252 1001 278 975 q 190 1028 226 1028 m 188 1094 q 248 1082 219 1094 q 297 1049 276 1069 q 331 999 318 1028 q 343 939 343 971 q 331 879 343 907 q 297 831 318 851 q 249 797 276 810 q 189 785 221 785 q 129 797 157 785 q 81 831 101 810 q 47 879 60 851 q 35 939 35 907 q 47 999 35 971 q 79 1049 58 1028 q 128 1082 100 1069 q 188 1094 156 1094 z "},"±":{"ha":507,"x_min":28,"x_max":468,"o":"m 449 218 q 468 199 468 218 l 468 110 q 449 90 468 90 l 49 90 q 28 110 28 90 l 28 199 q 49 218 28 218 l 449 218 m 49 417 q 28 436 28 417 l 28 525 q 49 544 28 544 l 185 544 l 185 682 q 204 703 185 703 l 293 703 q 313 682 313 703 l 313 544 l 449 544 q 468 525 468 544 l 468 436 q 449 417 468 417 l 313 417 l 313 282 q 293 263 313 263 l 204 263 q 185 282 185 263 l 185 417 l 49 417 z "},"²":{"ha":385,"x_min":60,"x_max":319,"o":"m 315 268 l 315 179 q 304 171 315 171 l 60 171 l 60 275 q 79 383 60 322 q 131 503 99 444 l 181 592 q 201 629 194 615 q 212 652 208 643 q 216 669 215 661 q 217 690 217 678 l 217 806 q 208 827 217 818 q 188 836 200 836 q 167 819 175 836 q 160 775 160 803 l 160 678 l 60 678 l 60 814 q 65 848 60 829 q 81 882 71 867 q 186 938 113 938 q 310 858 278 938 q 316 834 313 847 q 319 814 319 821 l 319 672 q 297 598 319 649 q 236 481 275 547 q 183 368 201 421 q 165 272 165 315 l 165 268 l 315 268 z "},"³":{"ha":326,"x_min":31,"x_max":286,"o":"m 128 294 q 158 264 128 264 q 181 274 172 264 q 189 300 189 285 l 189 481 q 165 514 189 510 l 140 514 l 140 626 l 165 626 q 180 638 174 626 q 186 665 186 650 l 186 801 q 178 828 186 818 q 158 839 171 839 q 136 828 144 839 q 128 801 128 818 l 128 681 l 31 681 l 31 808 q 65 904 31 868 q 157 940 100 940 q 260 888 228 940 q 276 852 269 872 q 282 817 282 832 l 282 668 q 269 614 282 638 q 232 578 256 590 q 261 560 247 578 q 286 511 275 543 l 286 308 q 280 270 286 293 q 265 231 274 247 q 158 164 232 164 q 53 221 86 164 q 37 258 43 238 q 31 294 31 279 l 31 424 l 128 424 l 128 294 z "},"´":{"ha":271,"x_min":39,"x_max":235,"o":"m 114 1085 q 128 1099 118 1099 l 224 1099 q 235 1089 235 1099 l 235 1088 l 233 1086 l 233 1085 l 131 819 q 114 807 128 807 l 50 807 q 39 818 39 807 l 39 822 l 114 1085 z "},"µ":{"ha":429,"x_min":42,"x_max":379,"o":"m 42 722 q 61 742 42 742 l 153 742 q 172 722 172 742 l 172 158 q 215 97 172 97 q 254 163 254 97 l 254 722 q 274 742 254 742 l 360 742 q 379 722 379 742 l 379 19 q 360 0 379 0 l 279 0 l 263 38 q 228 7 256 22 q 172 -14 200 -8 l 172 -182 q 153 -201 172 -201 l 61 -201 q 42 -182 42 -201 l 42 153 l 42 722 z "},"¶":{"ha":493,"x_min":25,"x_max":474,"o":"m 414 957 l 414 0 l 363 0 l 363 957 l 296 957 l 296 0 l 244 0 l 244 439 l 171 439 q 117 453 143 439 q 71 488 92 467 q 38 538 50 510 q 25 596 25 567 l 25 849 q 39 924 25 894 q 85 972 53 953 q 201 1008 142 1008 l 474 1008 l 474 957 l 414 957 z "},"·":{"ha":274,"x_min":53,"x_max":218,"o":"m 133 503 q 193 478 168 503 q 218 418 218 454 q 193 362 218 386 q 133 338 168 338 q 76 361 100 338 q 53 419 53 385 q 76 478 53 454 q 133 503 100 503 z "},"¸":{"ha":333,"x_min":99,"x_max":281,"o":"m 214 -25 q 265 -65 250 -40 q 281 -132 281 -90 q 250 -215 281 -190 q 229 -228 242 -222 q 203 -237 217 -233 q 175 -243 189 -242 q 153 -242 161 -244 q 144 -240 149 -240 l 99 -240 l 99 -142 q 131 -147 118 -146 q 154 -149 143 -149 q 189 -142 179 -149 q 199 -121 199 -136 q 185 -98 199 -106 q 131 -83 172 -90 l 131 4 l 214 4 l 214 -25 z "},"¹":{"ha":263,"x_min":31,"x_max":226,"o":"m 31 711 l 31 839 l 136 929 l 222 929 q 226 919 226 929 l 226 183 q 218 171 226 171 l 122 171 q 115 189 115 171 l 115 785 l 31 711 z "},"º":{"ha":338,"x_min":46,"x_max":279,"o":"m 267 532 q 279 519 279 532 l 279 467 q 267 454 279 454 l 58 454 q 46 467 46 454 l 46 519 q 58 532 46 532 l 267 532 m 186 919 q 163 950 186 950 q 140 919 140 950 l 140 663 q 164 622 140 622 q 186 663 186 622 l 186 919 m 64 935 q 160 1018 64 1018 q 234 995 207 1018 q 261 932 261 972 l 261 647 q 235 582 261 607 q 165 557 208 557 q 64 654 64 557 l 64 935 z "},"»":{"ha":671,"x_min":29,"x_max":651,"o":"m 321 325 q 307 313 321 315 l 44 238 l 40 236 q 29 249 29 236 l 29 313 q 42 329 29 325 q 56 335 44 331 q 99 356 68 340 q 190 397 150 379 q 251 422 229 414 q 221 435 235 429 q 187 450 207 440 q 136 474 167 460 q 56 511 106 488 q 47 515 50 514 q 42 517 44 515 q 29 533 29 521 l 29 597 q 40 610 29 610 l 44 608 l 307 533 q 321 521 321 531 l 321 424 l 321 325 m 651 325 q 638 313 651 315 l 375 238 l 371 236 q 360 249 360 236 l 360 313 q 372 329 360 325 q 387 335 375 331 q 429 356 399 340 q 520 397 481 379 q 582 422 560 414 q 551 435 565 429 q 517 450 538 440 q 467 474 497 460 q 386 511 436 488 q 378 515 381 514 q 372 517 375 515 q 360 533 360 521 l 360 597 q 371 610 360 610 l 375 608 l 638 533 q 651 521 651 531 l 651 424 l 651 325 z "},"¼":{"ha":915,"x_min":26,"x_max":882,"o":"m 599 142 q 589 151 589 144 l 589 263 l 671 758 l 764 758 l 689 242 l 747 242 l 747 486 l 846 486 l 846 242 l 882 242 l 882 139 l 846 139 l 846 13 q 838 0 846 0 l 758 0 q 747 10 747 0 l 747 142 l 599 142 m 278 -208 q 258 -225 274 -225 l 182 -225 q 172 -210 172 -225 q 174 -197 172 -200 q 313 257 244 32 q 450 711 381 482 q 485 826 468 769 q 519 939 503 883 q 528 963 525 950 q 535 992 532 976 q 549 1011 539 1011 l 635 1011 q 644 1001 644 1011 q 642 992 644 997 l 278 -208 m 26 711 l 26 839 l 132 929 l 218 929 q 222 919 222 929 l 222 183 q 214 171 222 171 l 118 171 q 111 189 111 171 l 111 785 l 26 711 z "},"½":{"ha":907,"x_min":26,"x_max":875,"o":"m 871 97 l 871 8 q 860 0 871 0 l 615 0 l 615 104 q 635 213 615 151 q 686 332 654 274 l 736 421 q 757 458 750 444 q 767 481 764 472 q 772 499 771 490 q 772 519 772 507 l 772 635 q 764 656 772 647 q 743 665 756 665 q 723 649 731 665 q 715 604 715 632 l 715 507 l 615 507 l 615 643 q 621 677 615 658 q 636 711 626 696 q 742 767 668 767 q 865 688 833 767 q 872 663 868 676 q 875 643 875 650 l 875 501 q 853 427 875 478 q 792 310 831 376 q 739 197 757 250 q 721 101 721 144 l 721 97 l 871 97 m 278 -208 q 258 -225 274 -225 l 182 -225 q 172 -210 172 -225 q 174 -197 172 -200 q 313 257 244 32 q 450 711 381 482 q 485 826 468 769 q 519 939 503 883 q 528 963 525 950 q 535 992 532 976 q 549 1011 539 1011 l 635 1011 q 644 1001 644 1011 q 642 992 644 997 l 278 -208 m 26 711 l 26 839 l 132 929 l 218 929 q 222 919 222 929 l 222 183 q 214 171 222 171 l 118 171 q 111 189 111 171 l 111 785 l 26 711 z "},"¾":{"ha":950,"x_min":26,"x_max":917,"o":"m 881 13 q 872 0 881 0 l 793 0 q 782 10 782 0 l 782 142 l 633 142 q 624 151 624 144 l 624 263 l 706 758 l 799 758 l 724 242 l 782 242 l 782 486 l 881 486 l 881 242 l 917 242 l 917 139 l 881 139 l 881 13 m 317 -208 q 297 -225 313 -225 l 221 -225 q 211 -210 211 -225 l 211 -207 l 211 -201 q 213 -197 213 -199 q 351 258 283 32 q 489 711 419 483 q 523 824 506 768 q 558 939 540 881 q 574 992 572 976 q 589 1011 578 1011 l 674 1011 q 683 1001 683 1011 q 681 992 683 997 l 317 -208 m 124 294 q 154 264 124 264 q 176 274 168 264 q 185 300 185 285 l 185 481 q 161 514 185 510 l 136 514 l 136 626 l 161 626 q 176 638 169 626 q 182 665 182 650 l 182 801 q 174 828 182 818 q 154 839 167 839 q 132 828 140 839 q 124 801 124 818 l 124 681 l 26 681 l 26 808 q 61 904 26 868 q 153 940 96 940 q 256 888 224 940 q 272 852 265 872 q 278 817 278 832 l 278 668 q 265 614 278 638 q 228 578 251 590 q 257 560 243 578 q 282 511 271 543 l 282 308 q 276 270 282 293 q 261 231 269 247 q 154 164 228 164 q 49 221 82 164 q 33 258 39 238 q 26 294 26 279 l 26 424 l 124 424 l 124 294 z "},"¿":{"ha":390,"x_min":28,"x_max":363,"o":"m 175 751 q 235 727 210 751 q 260 671 260 703 q 235 610 260 635 q 175 586 210 586 q 118 610 142 586 q 94 669 94 635 q 118 728 94 704 q 175 751 142 751 m 229 469 q 247 460 244 469 l 254 350 q 265 311 254 338 q 304 231 276 285 q 332 173 321 199 q 350 122 343 147 q 360 69 357 96 q 363 8 363 42 l 363 -154 q 349 -204 363 -181 q 313 -245 336 -228 q 259 -272 290 -262 q 193 -282 228 -282 q 83 -247 126 -282 q 28 -150 39 -212 l 28 44 l 157 44 l 157 -117 q 167 -144 157 -133 q 193 -154 176 -154 q 222 -145 211 -154 q 233 -121 233 -136 l 233 28 q 178 181 233 74 q 110 453 110 311 l 110 456 q 125 469 110 467 l 194 469 l 229 469 z "},"À":{"ha":510,"x_min":28,"x_max":481,"o":"m 336 1104 l 338 1100 q 325 1089 338 1089 l 261 1089 q 244 1101 249 1089 l 142 1367 l 142 1368 l 142 1369 q 151 1381 142 1381 l 247 1381 q 261 1367 260 1381 l 336 1104 m 286 278 q 292 290 292 278 q 288 318 290 296 q 280 387 285 340 q 266 509 275 433 q 244 700 257 585 l 200 290 q 204 278 200 278 l 286 278 m 183 149 l 163 15 q 147 0 163 0 l 35 0 q 28 11 28 0 l 171 982 q 176 1003 171 994 q 192 1011 182 1011 l 304 1011 q 315 1006 311 1011 q 321 986 318 1001 l 478 32 l 479 26 q 481 15 481 22 q 469 0 481 0 l 349 0 q 339 5 342 0 q 333 25 336 10 q 329 47 332 31 q 324 83 326 64 q 317 119 321 101 q 313 149 314 138 l 183 149 z "},"Á":{"ha":507,"x_min":28,"x_max":481,"o":"m 265 1099 q 249 1086 261 1086 l 185 1086 q 172 1097 172 1086 l 174 1101 l 249 1364 q 261 1378 251 1378 l 358 1378 q 368 1367 368 1378 l 368 1364 l 265 1099 m 286 278 q 292 290 292 278 q 288 318 290 296 q 280 387 285 340 q 266 509 275 433 q 244 700 257 585 l 200 290 q 204 278 200 278 l 286 278 m 183 149 l 163 15 q 147 0 163 0 l 35 0 q 28 11 28 0 l 171 982 q 176 1003 171 994 q 192 1011 182 1011 l 304 1011 q 315 1006 311 1011 q 321 986 318 1001 l 478 32 l 479 26 q 481 15 481 22 q 469 0 481 0 l 349 0 q 339 5 342 0 q 333 25 336 10 q 329 47 332 31 q 324 83 326 64 q 317 119 321 101 q 313 149 314 138 l 183 149 z "},"Â":{"ha":513,"x_min":28,"x_max":481,"o":"m 343 1381 q 356 1367 353 1381 l 431 1104 l 432 1100 q 419 1089 432 1089 l 356 1089 q 339 1101 343 1089 q 326 1128 336 1106 q 296 1194 315 1151 q 264 1265 276 1235 q 244 1311 251 1294 q 231 1278 238 1296 q 214 1239 224 1261 q 191 1188 204 1217 q 161 1122 178 1160 l 151 1101 q 135 1089 147 1089 l 71 1089 q 58 1100 58 1089 l 60 1104 l 135 1367 q 147 1381 138 1381 l 246 1381 l 343 1381 m 286 278 q 292 290 292 278 q 288 318 290 296 q 280 387 285 340 q 266 509 275 433 q 244 700 257 585 l 200 290 q 204 278 200 278 l 286 278 m 183 149 l 163 15 q 147 0 163 0 l 35 0 q 28 11 28 0 l 171 982 q 176 1003 171 994 q 192 1011 182 1011 l 304 1011 q 315 1006 311 1011 q 321 986 318 1001 l 478 32 l 479 26 q 481 15 481 22 q 469 0 481 0 l 349 0 q 339 5 342 0 q 333 25 336 10 q 329 47 332 31 q 324 83 326 64 q 317 119 321 101 q 313 149 314 138 l 183 149 z "},"Ã":{"ha":515,"x_min":28,"x_max":481,"o":"m 69 1214 q 119 1235 97 1229 q 169 1242 140 1242 q 192 1241 182 1242 q 212 1238 201 1240 q 235 1231 222 1235 q 265 1219 247 1226 q 304 1208 289 1211 q 336 1204 319 1204 q 354 1206 346 1204 q 372 1210 363 1207 q 394 1220 382 1214 q 422 1238 406 1226 l 422 1106 q 393 1088 404 1094 q 373 1078 382 1082 q 356 1074 364 1075 q 336 1072 347 1072 q 319 1073 326 1072 q 302 1076 311 1074 q 281 1082 293 1078 q 249 1093 268 1086 q 208 1106 224 1103 q 169 1108 192 1108 q 119 1102 140 1108 q 69 1081 97 1096 l 69 1214 m 286 278 q 292 290 292 278 q 288 318 290 296 q 280 387 285 340 q 266 509 275 433 q 244 700 257 585 l 200 290 q 204 278 200 278 l 286 278 m 183 149 l 163 15 q 147 0 163 0 l 35 0 q 28 11 28 0 l 171 982 q 176 1003 171 994 q 192 1011 182 1011 l 304 1011 q 315 1006 311 1011 q 321 986 318 1001 l 478 32 l 479 26 q 481 15 481 22 q 469 0 481 0 l 349 0 q 339 5 342 0 q 333 25 336 10 q 329 47 332 31 q 324 83 326 64 q 317 119 321 101 q 313 149 314 138 l 183 149 z "},"Ä":{"ha":504,"x_min":28,"x_max":481,"o":"m 150 1251 q 206 1228 182 1251 q 231 1172 231 1204 q 208 1116 231 1139 q 151 1093 185 1093 q 96 1117 119 1093 q 72 1172 72 1140 q 95 1228 72 1206 q 150 1251 118 1251 m 336 1251 q 392 1228 368 1251 q 417 1172 417 1204 q 394 1116 417 1139 q 338 1093 371 1093 q 282 1117 306 1093 q 258 1172 258 1140 q 281 1228 258 1206 q 336 1251 304 1251 m 286 278 q 292 290 292 278 q 288 318 290 296 q 280 387 285 340 q 266 509 275 433 q 244 700 257 585 l 200 290 q 204 278 200 278 l 286 278 m 183 149 l 163 15 q 147 0 163 0 l 35 0 q 28 11 28 0 l 171 982 q 176 1003 171 994 q 192 1011 182 1011 l 304 1011 q 315 1006 311 1011 q 321 986 318 1001 l 478 32 l 479 26 q 481 15 481 22 q 469 0 481 0 l 349 0 q 339 5 342 0 q 333 25 336 10 q 329 47 332 31 q 324 83 326 64 q 317 119 321 101 q 313 149 314 138 l 183 149 z "},"Å":{"ha":515,"x_min":28,"x_max":481,"o":"m 249 1321 q 332 1286 297 1321 q 367 1201 367 1251 q 358 1155 367 1176 q 333 1117 349 1133 q 295 1092 317 1101 q 249 1082 274 1082 q 202 1092 224 1082 q 164 1118 181 1101 q 138 1156 147 1135 q 128 1201 128 1178 q 163 1286 128 1251 q 249 1321 199 1321 m 247 1250 q 210 1237 224 1250 q 197 1201 197 1224 q 210 1166 197 1179 q 247 1153 224 1153 q 283 1166 269 1153 q 296 1201 296 1179 q 282 1236 296 1222 q 247 1250 268 1250 m 286 278 q 292 290 292 278 q 288 318 290 296 q 280 387 285 340 q 266 509 275 433 q 244 700 257 585 l 200 290 q 204 278 200 278 l 286 278 m 183 149 l 163 15 q 147 0 163 0 l 35 0 q 28 11 28 0 l 171 982 q 176 1003 171 994 q 192 1011 182 1011 l 304 1011 q 315 1006 311 1011 q 321 986 318 1001 l 478 32 l 479 26 q 481 15 481 22 q 469 0 481 0 l 349 0 q 339 5 342 0 q 333 25 336 10 q 329 47 332 31 q 324 83 326 64 q 317 119 321 101 q 313 149 314 138 l 183 149 z "},"Æ":{"ha":696,"x_min":46,"x_max":663,"o":"m 263 278 l 360 278 l 360 696 l 263 278 m 663 126 l 663 0 l 360 0 l 360 146 l 229 146 l 189 0 l 46 0 l 322 1011 l 660 1011 l 660 876 l 511 876 l 511 574 l 661 574 l 661 439 l 513 439 l 513 126 l 663 126 z "},"Ç":{"ha":426,"x_min":29,"x_max":389,"o":"m 247 -25 q 299 -65 283 -40 q 314 -132 314 -90 q 283 -215 314 -190 q 263 -228 275 -222 q 236 -237 250 -233 q 208 -243 222 -242 q 186 -242 194 -244 q 178 -240 182 -240 l 132 -240 l 132 -142 q 164 -147 151 -146 q 188 -149 176 -149 q 222 -142 213 -149 q 232 -121 232 -136 q 219 -98 232 -106 q 164 -83 206 -90 l 164 4 l 247 4 l 247 -25 m 376 375 q 389 356 389 371 l 389 165 q 382 125 389 150 q 365 82 375 100 q 206 -11 318 -11 q 74 45 118 -11 q 29 210 29 101 l 29 831 q 35 880 29 854 q 50 926 40 906 q 204 1024 92 1024 q 338 967 288 1024 q 389 819 389 911 l 389 693 q 376 678 389 678 l 261 678 q 256 690 256 678 l 256 818 q 241 858 256 840 q 207 875 226 875 q 173 858 188 875 q 158 818 158 842 l 158 174 q 172 139 158 153 q 207 125 186 125 q 242 139 228 125 q 256 174 256 153 l 256 356 q 268 375 256 375 l 376 375 z "},"È":{"ha":335,"x_min":28,"x_max":310,"o":"m 264 1104 l 265 1100 q 253 1089 265 1089 l 189 1089 q 172 1101 176 1089 l 69 1367 l 69 1368 l 69 1369 q 79 1381 69 1381 l 175 1381 q 189 1367 188 1381 l 264 1104 m 181 890 q 168 878 168 890 l 168 579 l 310 579 l 310 443 l 168 443 l 168 140 q 181 129 168 129 l 310 129 l 310 0 l 47 0 q 28 19 28 0 l 28 994 q 38 1011 28 1011 l 310 1011 l 310 890 l 181 890 z "},"É":{"ha":338,"x_min":28,"x_max":310,"o":"m 165 1099 q 149 1086 161 1086 l 85 1086 q 72 1097 72 1086 l 74 1101 l 149 1364 q 161 1378 151 1378 l 258 1378 q 268 1367 268 1378 l 268 1364 l 165 1099 m 181 890 q 168 878 168 890 l 168 579 l 310 579 l 310 443 l 168 443 l 168 140 q 181 129 168 129 l 310 129 l 310 0 l 47 0 q 28 19 28 0 l 28 994 q 38 1011 28 1011 l 310 1011 l 310 890 l 181 890 z "},"Ê":{"ha":390,"x_min":7,"x_max":379,"o":"m 290 1381 q 303 1367 303 1381 l 378 1104 q 379 1100 379 1103 q 367 1089 379 1089 l 303 1089 q 286 1101 290 1089 q 278 1121 281 1114 q 268 1143 275 1128 q 239 1205 251 1179 q 218 1250 226 1231 q 203 1284 210 1269 q 192 1311 197 1299 q 178 1278 185 1293 q 163 1242 172 1263 q 139 1190 153 1221 q 104 1114 125 1160 l 100 1104 l 100 1103 l 99 1101 q 82 1089 96 1089 l 18 1089 q 7 1100 7 1089 l 7 1104 l 82 1367 q 94 1381 86 1381 l 193 1381 l 290 1381 m 204 890 q 192 878 192 890 l 192 579 l 333 579 l 333 443 l 192 443 l 192 140 q 204 129 192 129 l 333 129 l 333 0 l 71 0 q 51 19 51 0 l 51 994 q 61 1011 51 1011 l 333 1011 l 333 890 l 204 890 z "},"Ë":{"ha":338,"x_min":-1,"x_max":339,"o":"m 76 1251 q 133 1228 108 1251 q 157 1172 157 1204 q 134 1116 157 1139 q 78 1093 111 1093 q 22 1117 46 1093 q -1 1172 -1 1140 q 22 1228 -1 1206 q 76 1251 44 1251 m 258 1251 q 315 1228 290 1251 q 339 1172 339 1204 q 316 1116 339 1139 q 260 1093 293 1093 q 204 1117 228 1093 q 181 1172 181 1140 q 203 1228 181 1206 q 258 1251 226 1251 m 181 890 q 168 878 168 890 l 168 579 l 310 579 l 310 443 l 168 443 l 168 140 q 181 129 168 129 l 310 129 l 310 0 l 47 0 q 28 19 28 0 l 28 994 q 38 1011 28 1011 l 310 1011 l 310 890 l 181 890 z "},"Ì":{"ha":200,"x_min":1,"x_max":197,"o":"m 196 1104 l 197 1100 q 185 1089 197 1089 l 121 1089 q 104 1101 108 1089 l 1 1367 l 1 1368 l 1 1369 q 11 1381 1 1381 l 107 1381 q 121 1367 119 1381 l 196 1104 m 171 19 q 151 0 171 0 l 50 0 q 31 19 31 0 l 31 994 q 40 1011 31 1011 l 161 1011 q 171 994 171 1011 l 171 19 z "},"Í":{"ha":200,"x_min":3,"x_max":199,"o":"m 94 1100 q 78 1088 92 1088 l 14 1088 q 3 1099 3 1088 l 3 1103 l 78 1365 q 90 1379 82 1379 l 188 1379 q 199 1369 199 1379 l 199 1368 q 197 1365 197 1365 l 94 1100 m 171 19 q 151 0 171 0 l 50 0 q 31 19 31 0 l 31 994 q 40 1011 31 1011 l 161 1011 q 171 994 171 1011 l 171 19 z "},"Î":{"ha":376,"x_min":1,"x_max":374,"o":"m 285 1381 q 297 1367 297 1381 l 372 1104 q 374 1100 374 1103 q 361 1089 374 1089 l 297 1089 q 281 1101 285 1089 q 272 1121 275 1114 q 263 1143 269 1128 q 233 1205 246 1179 q 213 1250 221 1231 q 198 1284 204 1269 q 186 1311 192 1299 q 173 1278 179 1293 q 157 1242 167 1263 q 133 1190 147 1221 q 99 1114 119 1160 l 94 1104 l 94 1103 l 93 1101 q 76 1089 90 1089 l 13 1089 q 1 1100 1 1089 l 1 1104 l 76 1367 q 89 1381 81 1381 l 188 1381 l 285 1381 m 260 19 q 240 0 260 0 l 139 0 q 119 19 119 0 l 119 994 q 129 1011 119 1011 l 250 1011 q 260 994 260 1011 l 260 19 z "},"Ï":{"ha":350,"x_min":3,"x_max":347,"o":"m 81 1251 q 137 1228 113 1251 q 161 1172 161 1204 q 138 1116 161 1139 q 82 1093 115 1093 q 26 1117 50 1093 q 3 1172 3 1140 q 26 1228 3 1206 q 81 1251 49 1251 m 267 1251 q 323 1228 299 1251 q 347 1172 347 1204 q 324 1116 347 1139 q 268 1093 301 1093 q 213 1117 236 1093 q 189 1172 189 1140 q 212 1228 189 1206 q 267 1251 235 1251 m 243 19 q 224 0 243 0 l 122 0 q 103 19 103 0 l 103 994 q 113 1011 103 1011 l 233 1011 q 243 994 243 1011 l 243 19 z "},"Ð":{"ha":435,"x_min":10,"x_max":421,"o":"m 192 132 q 203 119 192 119 l 243 119 q 272 134 261 119 q 283 172 283 149 l 283 832 q 272 867 283 853 q 243 881 261 881 l 199 881 q 192 872 192 881 l 192 585 l 225 585 q 239 571 239 585 l 239 456 q 225 443 239 443 l 192 443 l 192 132 m 63 990 q 75 1011 63 1011 l 264 1011 q 367 971 325 1011 q 421 864 410 931 l 421 179 q 385 47 421 94 q 288 0 350 0 l 82 0 q 63 19 63 0 l 63 443 l 25 443 q 10 456 10 443 l 10 571 q 25 585 10 585 l 63 585 l 63 990 z "},"Ñ":{"ha":438,"x_min":28,"x_max":406,"o":"m 47 1214 q 97 1235 75 1229 q 147 1242 118 1242 q 169 1241 160 1242 q 190 1238 179 1240 q 213 1231 200 1235 q 243 1219 225 1226 q 282 1208 267 1211 q 313 1204 297 1204 q 350 1210 335 1204 q 400 1238 365 1215 l 400 1106 q 371 1088 382 1094 q 351 1078 360 1082 q 333 1074 342 1075 q 314 1072 325 1072 q 297 1073 304 1072 q 280 1076 289 1074 q 258 1082 271 1078 q 226 1093 246 1086 q 185 1106 201 1103 q 147 1108 169 1108 q 97 1102 118 1108 q 47 1081 75 1096 l 47 1214 m 390 1011 q 406 990 406 1011 l 406 19 q 386 0 406 0 l 297 0 l 156 531 l 156 0 l 47 0 q 28 19 28 0 l 28 990 q 44 1011 28 1011 l 136 1011 l 281 449 l 281 1011 l 390 1011 z "},"Ò":{"ha":438,"x_min":25,"x_max":406,"o":"m 103 1367 l 103 1369 q 113 1381 103 1381 l 210 1381 q 222 1367 219 1381 l 297 1104 l 299 1100 q 286 1089 299 1089 l 222 1089 q 206 1101 210 1089 l 103 1367 m 261 817 q 215 871 261 871 q 172 817 172 871 l 172 176 q 214 119 172 119 q 248 135 235 119 q 261 176 261 151 l 261 817 m 25 835 q 39 910 25 875 q 77 969 53 944 q 135 1009 101 994 q 207 1024 168 1024 q 285 1009 249 1024 q 348 969 321 994 q 390 908 375 943 q 406 835 406 874 l 406 167 q 392 108 406 140 q 356 47 379 75 q 213 -18 303 -18 q 58 68 110 -18 q 25 181 25 124 l 25 835 z "},"Ó":{"ha":438,"x_min":25,"x_max":406,"o":"m 224 1367 q 238 1381 225 1381 l 333 1381 q 343 1369 343 1381 l 343 1368 l 343 1367 l 240 1101 q 224 1089 236 1089 l 160 1089 q 147 1100 147 1089 l 149 1104 l 224 1367 m 261 817 q 215 871 261 871 q 172 817 172 871 l 172 176 q 214 119 172 119 q 248 135 235 119 q 261 176 261 151 l 261 817 m 25 835 q 39 910 25 875 q 77 969 53 944 q 135 1009 101 994 q 207 1024 168 1024 q 285 1009 249 1024 q 348 969 321 994 q 390 908 375 943 q 406 835 406 874 l 406 167 q 392 108 406 140 q 356 47 379 75 q 213 -18 303 -18 q 58 68 110 -18 q 25 181 25 124 l 25 835 z "},"Ô":{"ha":435,"x_min":25,"x_max":406,"o":"m 108 1367 q 122 1381 110 1381 l 317 1381 q 329 1367 326 1381 l 404 1104 l 406 1100 q 393 1089 406 1089 l 329 1089 q 313 1101 317 1089 q 299 1128 310 1106 q 269 1194 289 1151 q 238 1265 250 1235 q 218 1311 225 1294 q 204 1278 211 1296 q 188 1239 197 1261 q 165 1188 178 1217 q 135 1122 151 1160 l 125 1101 q 108 1089 121 1089 l 44 1089 q 32 1100 32 1089 l 33 1104 l 108 1367 m 261 817 q 215 871 261 871 q 172 817 172 871 l 172 176 q 214 119 172 119 q 248 135 235 119 q 261 176 261 151 l 261 817 m 25 835 q 39 910 25 875 q 77 969 53 944 q 135 1009 101 994 q 207 1024 168 1024 q 285 1009 249 1024 q 348 969 321 994 q 390 908 375 943 q 406 835 406 874 l 406 167 q 392 108 406 140 q 356 47 379 75 q 213 -18 303 -18 q 58 68 110 -18 q 25 181 25 124 l 25 835 z "},"Õ":{"ha":435,"x_min":25,"x_max":406,"o":"m 43 1214 q 92 1235 71 1229 q 143 1242 114 1242 q 165 1241 156 1242 q 185 1238 175 1240 q 208 1231 196 1235 q 239 1219 221 1226 q 278 1208 263 1211 q 308 1204 293 1204 q 346 1210 331 1204 q 396 1238 361 1215 l 396 1106 q 367 1088 378 1094 q 347 1078 356 1082 q 329 1074 338 1075 q 310 1072 321 1072 q 292 1073 300 1072 q 276 1076 285 1074 q 254 1082 267 1078 q 222 1093 242 1086 q 181 1106 197 1103 q 143 1108 165 1108 q 92 1102 114 1108 q 43 1081 71 1096 l 43 1214 m 261 817 q 215 871 261 871 q 172 817 172 871 l 172 176 q 214 119 172 119 q 248 135 235 119 q 261 176 261 151 l 261 817 m 25 835 q 39 910 25 875 q 77 969 53 944 q 135 1009 101 994 q 207 1024 168 1024 q 285 1009 249 1024 q 348 969 321 994 q 390 908 375 943 q 406 835 406 874 l 406 167 q 392 108 406 140 q 356 47 379 75 q 213 -18 303 -18 q 58 68 110 -18 q 25 181 25 124 l 25 835 z "},"Ö":{"ha":429,"x_min":25,"x_max":406,"o":"m 124 1251 q 180 1228 156 1251 q 204 1172 204 1204 q 181 1116 204 1139 q 125 1093 158 1093 q 69 1117 93 1093 q 46 1172 46 1140 q 69 1228 46 1206 q 124 1251 92 1251 m 310 1251 q 366 1228 342 1251 q 390 1172 390 1204 q 367 1116 390 1139 q 311 1093 344 1093 q 256 1117 279 1093 q 232 1172 232 1140 q 255 1228 232 1206 q 310 1251 278 1251 m 261 817 q 215 871 261 871 q 172 817 172 871 l 172 176 q 214 119 172 119 q 248 135 235 119 q 261 176 261 151 l 261 817 m 25 835 q 39 910 25 875 q 77 969 53 944 q 135 1009 101 994 q 207 1024 168 1024 q 285 1009 249 1024 q 348 969 321 994 q 390 908 375 943 q 406 835 406 874 l 406 167 q 392 108 406 140 q 356 47 379 75 q 213 -18 303 -18 q 58 68 110 -18 q 25 181 25 124 l 25 835 z "},"×":{"ha":474,"x_min":49,"x_max":421,"o":"m 236 324 l 146 232 l 49 328 l 140 421 l 54 508 l 150 604 l 236 517 l 319 599 l 417 503 l 333 421 l 421 333 l 324 236 l 236 324 z "},"Ø":{"ha":438,"x_min":25,"x_max":406,"o":"m 258 -151 q 246 -162 258 -162 l 188 -162 q 175 -151 175 -162 l 175 -15 q 81 38 118 -6 q 40 105 54 67 q 25 181 25 143 l 25 835 q 67 957 25 906 q 175 1021 108 1008 l 175 1163 q 188 1174 175 1174 l 246 1174 q 258 1163 258 1174 l 258 1018 q 367 950 328 999 q 406 835 406 901 l 406 167 q 388 97 406 135 q 342 32 369 60 q 303 3 322 13 q 258 -14 285 -7 l 258 -151 m 261 817 q 215 871 261 871 q 172 817 172 871 l 172 176 q 214 119 172 119 q 248 135 235 119 q 261 176 261 151 l 261 817 z "},"Ù":{"ha":438,"x_min":31,"x_max":407,"o":"m 124 1367 l 124 1369 q 133 1381 124 1381 l 231 1381 q 243 1367 240 1381 l 318 1104 l 319 1100 q 307 1089 319 1089 l 243 1089 q 226 1101 231 1089 l 124 1367 m 407 197 q 360 38 407 92 q 224 -17 314 -17 q 83 40 135 -17 q 31 194 31 97 l 31 993 q 40 1011 31 1011 l 154 1011 q 164 993 164 1011 l 164 204 q 218 118 164 118 q 272 204 272 118 l 272 993 q 282 1011 272 1011 l 397 1011 q 407 993 407 1011 l 407 197 z "},"Ú":{"ha":438,"x_min":31,"x_max":407,"o":"m 219 1364 q 233 1378 221 1378 l 329 1378 q 339 1367 339 1378 l 339 1365 l 339 1364 l 236 1099 q 219 1086 232 1086 l 156 1086 q 143 1097 143 1086 l 144 1101 l 219 1364 m 407 197 q 360 38 407 92 q 224 -17 314 -17 q 83 40 135 -17 q 31 194 31 97 l 31 993 q 40 1011 31 1011 l 154 1011 q 164 993 164 1011 l 164 204 q 218 118 164 118 q 272 204 272 118 l 272 993 q 282 1011 272 1011 l 397 1011 q 407 993 407 1011 l 407 197 z "},"Û":{"ha":438,"x_min":31,"x_max":407,"o":"m 108 1367 q 122 1381 110 1381 l 317 1381 q 329 1367 326 1381 l 404 1104 l 406 1100 q 393 1089 406 1089 l 329 1089 q 313 1101 317 1089 q 299 1128 310 1106 q 269 1194 289 1151 q 238 1265 250 1235 q 218 1311 225 1294 q 204 1278 211 1296 q 188 1239 197 1261 q 165 1188 178 1217 q 135 1122 151 1160 l 125 1101 q 108 1089 121 1089 l 44 1089 q 32 1100 32 1089 l 33 1104 l 108 1367 m 407 197 q 360 38 407 92 q 224 -17 314 -17 q 83 40 135 -17 q 31 194 31 97 l 31 993 q 40 1011 31 1011 l 154 1011 q 164 993 164 1011 l 164 204 q 218 118 164 118 q 272 204 272 118 l 272 993 q 282 1011 272 1011 l 397 1011 q 407 993 407 1011 l 407 197 z "},"Ü":{"ha":438,"x_min":31,"x_max":407,"o":"m 119 1251 q 176 1228 151 1251 q 200 1172 200 1204 q 177 1116 200 1139 q 121 1093 154 1093 q 65 1117 89 1093 q 42 1172 42 1140 q 65 1228 42 1206 q 119 1251 88 1251 m 306 1251 q 362 1228 338 1251 q 386 1172 386 1204 q 363 1116 386 1139 q 307 1093 340 1093 q 251 1117 275 1093 q 228 1172 228 1140 q 251 1228 228 1206 q 306 1251 274 1251 m 407 197 q 360 38 407 92 q 224 -17 314 -17 q 83 40 135 -17 q 31 194 31 97 l 31 993 q 40 1011 31 1011 l 154 1011 q 164 993 164 1011 l 164 204 q 218 118 164 118 q 272 204 272 118 l 272 993 q 282 1011 272 1011 l 397 1011 q 407 993 407 1011 l 407 197 z "},"Ý":{"ha":507,"x_min":7,"x_max":503,"o":"m 249 1364 q 263 1378 250 1378 l 358 1378 q 368 1367 368 1378 l 368 1365 l 368 1364 l 265 1099 q 249 1086 261 1086 l 185 1086 q 172 1097 172 1086 l 174 1101 l 249 1364 m 318 331 l 318 19 q 299 0 318 0 l 197 0 q 178 19 178 0 l 178 331 l 7 994 q 17 1011 7 1011 l 165 1011 l 250 567 l 344 1011 l 493 1011 q 503 994 503 1011 l 318 331 z "},"Þ":{"ha":457,"x_min":43,"x_max":431,"o":"m 194 460 l 238 460 q 288 517 288 460 l 288 714 q 277 751 288 740 q 240 763 267 763 l 194 763 l 194 460 m 194 19 q 175 0 194 0 l 63 0 q 43 19 43 0 l 43 994 q 53 1011 43 1011 l 185 1011 q 194 994 194 1011 l 194 899 l 256 899 q 315 890 283 899 q 371 865 347 881 q 431 740 431 829 l 431 488 q 416 421 431 453 q 376 368 401 389 q 340 346 361 354 q 285 331 319 338 l 194 331 l 194 19 z "},"ß":{"ha":775,"x_min":29,"x_max":743,"o":"m 614 488 l 614 575 q 574 639 614 639 q 535 564 535 639 q 557 486 535 513 q 564 478 561 482 q 572 471 567 475 q 589 459 578 467 q 621 439 600 451 q 739 250 739 367 l 739 238 l 739 226 l 740 222 l 740 219 l 740 217 l 740 164 q 728 94 740 133 q 701 33 717 56 q 651 -6 682 6 q 571 -18 621 -18 q 433 39 461 -18 q 414 97 421 64 q 407 163 407 129 l 407 285 l 531 285 l 531 156 q 568 100 531 100 q 613 164 613 100 l 613 175 q 614 201 614 181 q 610 250 614 231 q 594 288 607 269 q 552 328 581 306 q 474 388 524 351 q 445 415 457 400 q 426 451 433 431 q 417 500 419 472 q 414 567 414 528 q 419 640 414 613 q 435 686 424 667 q 575 747 469 747 q 656 735 624 747 q 707 694 688 724 q 734 615 726 665 q 743 488 742 565 l 614 488 m 236 488 l 236 575 q 196 639 236 639 q 157 564 157 639 q 179 486 157 513 q 186 478 183 482 q 194 471 189 475 q 211 459 200 467 q 243 439 222 451 q 361 250 361 367 l 361 238 l 361 226 l 363 222 l 363 219 l 363 217 l 363 164 q 351 94 363 133 q 324 33 339 56 q 274 -6 304 6 q 193 -18 243 -18 q 56 39 83 -18 q 36 97 43 64 q 29 163 29 129 l 29 285 l 153 285 l 153 156 q 190 100 153 100 q 235 164 235 100 l 235 175 q 236 201 236 181 q 233 250 236 231 q 216 288 229 269 q 174 328 203 306 q 96 388 146 351 q 67 415 79 400 q 49 451 56 431 q 39 500 42 472 q 36 567 36 528 q 41 640 36 613 q 57 686 46 667 q 197 747 92 747 q 278 735 246 747 q 329 694 310 724 q 356 615 349 665 q 365 488 364 565 l 236 488 z "},"à":{"ha":415,"x_min":42,"x_max":371,"o":"m 93 1085 l 93 1088 q 103 1099 93 1099 l 200 1099 q 213 1085 210 1099 l 288 822 l 289 818 q 276 807 289 807 l 213 807 q 196 819 200 807 l 93 1085 m 247 579 q 234 604 247 592 q 206 617 221 617 q 180 605 190 617 q 169 578 169 593 l 169 143 q 210 92 169 92 q 247 144 247 92 l 247 579 m 361 742 q 371 725 371 742 l 371 19 q 351 0 371 0 l 276 0 l 263 54 q 229 4 256 22 q 163 -14 203 -14 q 74 21 107 -14 q 42 114 42 56 l 42 654 q 50 681 42 665 q 74 714 58 697 q 144 750 106 750 q 177 743 160 750 q 209 726 194 736 q 233 701 224 715 q 246 675 243 688 l 261 742 l 361 742 z "},"á":{"ha":415,"x_min":42,"x_max":371,"o":"m 211 1085 q 225 1099 213 1099 l 321 1099 q 331 1088 331 1099 l 331 1086 l 331 1085 l 228 819 q 211 807 224 807 l 147 807 q 135 818 135 807 l 136 822 l 211 1085 m 247 579 q 234 604 247 592 q 206 617 221 617 q 180 605 190 617 q 169 578 169 593 l 169 143 q 210 92 169 92 q 247 144 247 92 l 247 579 m 361 742 q 371 725 371 742 l 371 19 q 351 0 371 0 l 276 0 l 263 54 q 229 4 256 22 q 163 -14 203 -14 q 74 21 107 -14 q 42 114 42 56 l 42 654 q 50 681 42 665 q 74 714 58 697 q 144 750 106 750 q 177 743 160 750 q 209 726 194 736 q 233 701 224 715 q 246 675 243 688 l 261 742 l 361 742 z "},"â":{"ha":415,"x_min":24,"x_max":396,"o":"m 99 1085 q 113 1099 103 1099 l 307 1099 q 319 1085 319 1099 l 394 822 q 396 818 396 821 q 383 807 396 807 l 319 807 q 303 819 307 807 q 294 839 297 832 q 285 861 292 846 q 256 923 268 897 q 235 968 243 949 q 220 1002 226 988 q 208 1029 214 1017 q 195 996 201 1011 q 179 960 189 981 q 156 908 169 939 q 121 832 142 878 l 117 822 l 117 821 l 115 819 q 99 807 113 807 l 35 807 q 24 818 24 807 l 24 822 l 99 1085 m 247 579 q 234 604 247 592 q 206 617 221 617 q 180 606 190 617 q 169 578 169 594 l 169 143 q 210 92 169 92 q 247 144 247 92 l 247 579 m 361 742 q 371 725 371 742 l 371 19 q 351 0 371 0 l 276 0 l 263 54 q 229 4 256 22 q 163 -14 203 -14 q 74 21 107 -14 q 42 114 42 56 l 42 654 q 50 681 42 665 q 74 714 58 697 q 144 750 106 750 q 177 743 160 750 q 209 726 194 736 q 233 702 224 715 q 246 675 243 689 l 261 742 l 361 742 z "},"ã":{"ha":415,"x_min":32,"x_max":385,"o":"m 32 986 q 81 1008 60 1001 q 132 1014 103 1014 q 154 1013 144 1014 q 174 1010 164 1013 q 197 1003 185 1007 q 228 992 210 999 q 267 980 251 983 q 297 976 282 976 q 335 982 319 976 q 385 1010 350 988 l 385 878 q 356 860 367 867 q 335 851 344 854 q 318 846 326 847 q 299 844 310 844 q 281 845 289 844 q 265 848 274 846 q 243 854 256 850 q 211 865 231 858 q 170 878 186 875 q 132 881 154 881 q 81 874 103 881 q 32 853 60 868 l 32 986 m 247 579 q 234 604 247 592 q 206 617 221 617 q 180 605 190 617 q 169 578 169 593 l 169 143 q 210 92 169 92 q 247 144 247 92 l 247 579 m 361 742 q 371 725 371 742 l 371 19 q 351 0 371 0 l 276 0 l 263 54 q 229 4 256 22 q 163 -14 203 -14 q 74 21 107 -14 q 42 114 42 56 l 42 654 q 50 681 42 665 q 74 714 58 697 q 144 750 106 750 q 177 743 160 750 q 209 726 194 736 q 233 701 224 715 q 246 675 243 688 l 261 742 l 361 742 z "},"ä":{"ha":415,"x_min":36,"x_max":381,"o":"m 114 1008 q 170 985 146 1008 q 194 929 194 961 q 172 873 194 896 q 115 850 149 850 q 60 874 83 850 q 36 929 36 897 q 59 985 36 963 q 114 1008 82 1008 m 300 1008 q 356 985 332 1008 q 381 929 381 961 q 358 873 381 896 q 301 850 335 850 q 246 874 269 850 q 222 929 222 897 q 245 985 222 963 q 300 1008 268 1008 m 247 579 q 234 604 247 592 q 206 617 221 617 q 180 605 190 617 q 169 578 169 593 l 169 143 q 210 92 169 92 q 247 144 247 92 l 247 579 m 361 742 q 371 725 371 742 l 371 19 q 351 0 371 0 l 276 0 l 263 54 q 229 4 256 22 q 163 -14 203 -14 q 74 21 107 -14 q 42 114 42 56 l 42 654 q 50 681 42 665 q 74 714 58 697 q 144 750 106 750 q 177 743 160 750 q 209 726 194 736 q 233 701 224 715 q 246 675 243 688 l 261 742 l 361 742 z "},"å":{"ha":415,"x_min":42,"x_max":371,"o":"m 207 1096 q 292 1062 258 1096 q 326 976 326 1028 q 317 930 326 951 q 292 892 308 908 q 255 867 276 876 q 208 857 233 857 q 162 867 183 857 q 124 893 140 876 q 97 931 107 910 q 88 976 88 953 q 97 1023 88 1001 q 123 1060 107 1044 q 160 1086 139 1076 q 207 1096 182 1096 m 207 1025 q 170 1012 183 1025 q 157 976 157 999 q 170 941 157 954 q 207 928 183 928 q 242 941 229 928 q 256 976 256 954 q 242 1011 256 997 q 207 1025 228 1025 m 247 579 q 234 604 247 592 q 206 617 221 617 q 180 605 190 617 q 169 578 169 593 l 169 143 q 210 92 169 92 q 247 144 247 92 l 247 579 m 361 742 q 371 725 371 742 l 371 19 q 351 0 371 0 l 276 0 l 263 54 q 229 4 256 22 q 163 -14 203 -14 q 74 21 107 -14 q 42 114 42 56 l 42 654 q 50 681 42 665 q 74 714 58 697 q 144 750 106 750 q 177 743 160 750 q 209 726 194 736 q 233 701 224 715 q 246 675 243 688 l 261 742 l 361 742 z "},"æ":{"ha":604,"x_min":42,"x_max":579,"o":"m 332 736 q 373 748 356 744 q 413 751 390 751 q 535 706 490 751 q 566 662 554 686 q 578 618 578 638 l 578 376 q 568 360 578 360 l 378 360 l 378 135 q 390 113 378 125 q 414 101 403 101 q 435 116 424 101 q 447 142 447 131 l 447 256 q 457 272 447 272 l 569 272 q 579 256 579 272 l 579 114 q 566 65 579 89 q 530 24 553 42 q 477 -6 507 6 q 415 -17 447 -17 q 375 -13 393 -17 q 336 0 357 -10 l 276 0 l 263 54 q 229 4 256 22 q 163 -14 203 -14 q 74 21 107 -14 q 42 114 42 56 l 42 654 q 50 681 42 665 q 74 714 58 697 q 144 750 106 750 q 177 743 160 750 q 209 726 194 736 q 233 701 224 715 q 246 675 243 688 l 251 736 l 332 736 m 247 579 q 234 604 247 592 q 206 617 221 617 q 180 605 190 617 q 169 578 169 593 l 169 143 q 210 92 169 92 q 247 144 247 92 l 247 579 m 451 596 q 440 622 451 611 q 411 633 428 633 q 379 592 379 633 l 379 476 l 451 476 l 451 596 z "},"ç":{"ha":374,"x_min":26,"x_max":344,"o":"m 228 -25 q 279 -65 264 -40 q 294 -132 294 -90 q 264 -215 294 -190 q 243 -228 256 -222 q 216 -237 231 -233 q 188 -243 201 -242 q 167 -242 175 -244 q 158 -240 163 -240 l 113 -240 l 113 -142 q 144 -147 132 -146 q 168 -149 157 -149 q 203 -142 193 -149 q 213 -121 213 -136 q 199 -98 213 -106 q 144 -83 186 -90 l 144 4 l 228 4 l 228 -25 m 332 292 q 344 278 344 288 l 344 119 q 294 24 335 58 q 192 -11 254 -11 q 71 32 115 -11 q 26 150 26 75 l 26 611 q 32 647 26 626 q 49 685 38 668 q 185 756 88 756 q 335 661 301 756 q 342 635 339 650 q 344 611 344 621 l 344 511 q 332 496 344 496 l 238 496 q 225 507 225 496 l 225 594 q 215 622 225 611 q 188 633 204 633 q 153 594 153 633 l 153 150 q 164 117 153 131 q 190 104 175 104 q 215 117 206 104 q 225 150 225 131 l 225 278 q 238 292 225 292 l 332 292 z "},"è":{"ha":411,"x_min":42,"x_max":374,"o":"m 86 1085 l 86 1088 q 96 1099 86 1099 l 193 1099 q 206 1085 203 1099 l 281 822 l 282 818 q 269 807 282 807 l 206 807 q 189 819 193 807 l 86 1085 m 172 135 q 185 113 172 125 q 208 101 197 101 q 230 116 218 101 q 242 142 242 131 l 242 256 q 251 272 242 272 l 364 272 q 374 256 374 272 l 374 114 q 360 65 374 89 q 324 24 347 42 q 272 -6 301 6 q 211 -17 243 -17 q 147 -5 178 -17 q 92 26 115 7 q 56 72 69 46 q 42 125 42 97 l 42 617 q 88 714 42 676 q 208 751 135 751 q 285 737 253 751 q 342 690 318 722 q 372 618 372 651 l 372 376 q 363 360 372 360 l 172 360 l 172 135 m 246 596 q 234 622 246 611 q 206 633 222 633 q 174 592 174 633 l 174 476 l 246 476 l 246 596 z "},"é":{"ha":411,"x_min":42,"x_max":374,"o":"m 222 1085 q 236 1099 224 1099 l 332 1099 q 342 1088 342 1099 l 342 1086 l 342 1085 l 239 819 q 222 807 235 807 l 158 807 q 146 818 146 807 l 147 822 l 222 1085 m 172 135 q 185 113 172 125 q 208 101 197 101 q 230 116 218 101 q 242 142 242 131 l 242 256 q 251 272 242 272 l 364 272 q 374 256 374 272 l 374 114 q 360 65 374 89 q 324 24 347 42 q 272 -6 301 6 q 211 -17 243 -17 q 147 -5 178 -17 q 92 26 115 7 q 56 72 69 46 q 42 125 42 97 l 42 617 q 88 714 42 676 q 208 751 135 751 q 285 737 253 751 q 342 690 318 722 q 372 618 372 651 l 372 376 q 363 360 372 360 l 172 360 l 172 135 m 246 596 q 234 622 246 611 q 206 633 222 633 q 174 592 174 633 l 174 476 l 246 476 l 246 596 z "},"ê":{"ha":411,"x_min":22,"x_max":394,"o":"m 97 1085 q 111 1099 101 1099 l 306 1099 q 318 1085 318 1099 l 393 822 q 394 818 394 821 q 382 807 394 807 l 318 807 q 301 819 306 807 q 293 839 296 832 q 283 861 290 846 q 254 923 267 897 q 233 968 242 949 q 219 1002 225 988 q 207 1029 213 1017 q 194 996 200 1011 q 178 960 188 981 q 154 908 168 939 q 119 832 140 878 l 115 822 l 115 821 l 114 819 q 97 807 111 807 l 33 807 q 22 818 22 807 l 22 822 l 97 1085 m 172 135 q 185 113 172 125 q 208 101 197 101 q 230 116 218 101 q 242 142 242 131 l 242 256 q 251 272 242 272 l 364 272 q 374 256 374 272 l 374 114 q 360 65 374 89 q 324 24 347 42 q 272 -6 301 6 q 211 -17 243 -17 q 147 -5 178 -17 q 92 26 115 7 q 56 72 69 46 q 42 125 42 97 l 42 617 q 88 714 42 676 q 208 751 135 751 q 285 737 253 751 q 342 690 318 722 q 372 618 372 651 l 372 376 q 363 360 372 360 l 172 360 l 172 135 m 246 596 q 234 622 246 611 q 206 633 222 633 q 174 592 174 633 l 174 476 l 246 476 l 246 596 z "},"ë":{"ha":411,"x_min":38,"x_max":382,"o":"m 115 1008 q 172 985 147 1008 q 196 929 196 961 q 173 873 196 896 q 117 850 150 850 q 61 874 85 850 q 38 929 38 897 q 60 985 38 963 q 115 1008 83 1008 m 301 1008 q 358 985 333 1008 q 382 929 382 961 q 359 873 382 896 q 303 850 336 850 q 247 874 271 850 q 224 929 224 897 q 247 985 224 963 q 301 1008 269 1008 m 172 135 q 185 113 172 125 q 208 101 197 101 q 230 116 218 101 q 242 142 242 131 l 242 256 q 251 272 242 272 l 364 272 q 374 256 374 272 l 374 114 q 360 65 374 89 q 324 24 347 42 q 272 -6 301 6 q 211 -17 243 -17 q 147 -5 178 -17 q 92 26 115 7 q 56 72 69 46 q 42 125 42 97 l 42 617 q 88 714 42 676 q 208 751 135 751 q 285 737 253 751 q 342 690 318 722 q 372 618 372 651 l 372 376 q 363 360 372 360 l 172 360 l 172 135 m 246 596 q 234 622 246 611 q 206 633 222 633 q 174 592 174 633 l 174 476 l 246 476 l 246 596 z "},"ì":{"ha":235,"x_min":11,"x_max":207,"o":"m 206 822 l 207 818 q 194 807 207 807 l 131 807 q 114 819 118 807 l 11 1085 l 11 1086 l 11 1088 q 21 1099 11 1099 l 117 1099 q 131 1085 129 1099 l 206 822 m 207 21 q 192 0 207 0 l 90 0 q 71 21 71 0 l 71 725 q 74 737 71 732 q 82 742 78 742 l 200 742 q 207 725 207 742 l 207 21 z "},"í":{"ha":235,"x_min":32,"x_max":231,"o":"m 128 819 q 111 807 124 807 l 47 807 q 35 818 35 807 l 36 822 l 111 1085 q 124 1099 114 1099 l 221 1099 q 231 1088 231 1099 l 231 1085 l 128 819 m 168 21 q 153 0 168 0 l 51 0 q 32 21 32 0 l 32 725 q 35 737 32 732 q 43 742 39 742 l 161 742 q 168 725 168 742 l 168 21 z "},"î":{"ha":378,"x_min":3,"x_max":375,"o":"m 286 1099 q 299 1085 299 1099 l 374 822 q 375 818 375 821 q 363 807 375 807 l 299 807 q 282 819 286 807 q 274 839 276 832 q 264 861 271 846 q 235 923 247 897 q 214 968 222 949 q 199 1002 206 988 q 188 1029 193 1017 q 174 996 181 1011 q 158 960 168 981 q 135 908 149 939 q 100 832 121 878 l 96 822 l 96 821 l 94 819 q 78 807 92 807 l 14 807 q 3 818 3 807 l 3 822 l 78 1085 q 90 1099 82 1099 l 189 1099 l 286 1099 m 256 21 q 240 0 256 0 l 139 0 q 119 21 119 0 l 119 725 q 123 737 119 732 q 131 742 126 742 l 249 742 q 256 725 256 742 l 256 21 z "},"ï":{"ha":349,"x_min":3,"x_max":347,"o":"m 81 1008 q 137 985 113 1008 q 161 929 161 961 q 138 873 161 896 q 82 850 115 850 q 26 874 50 850 q 3 929 3 897 q 26 985 3 963 q 81 1008 49 1008 m 267 1008 q 323 985 299 1008 q 347 929 347 961 q 324 873 347 896 q 268 850 301 850 q 213 874 236 850 q 189 929 189 897 q 212 985 189 963 q 267 1008 235 1008 m 240 21 q 225 0 240 0 l 124 0 q 104 21 104 0 l 104 725 q 108 737 104 732 q 115 742 111 742 l 233 742 q 240 725 240 742 l 240 21 z "},"ð":{"ha":449,"x_min":42,"x_max":429,"o":"m 246 158 l 246 151 q 247 144 246 146 l 247 143 l 246 168 l 246 158 m 244 597 q 207 633 236 633 q 169 582 169 633 l 169 158 q 211 92 169 92 q 244 138 244 92 l 244 168 l 244 597 m 374 132 q 364 83 374 110 q 338 36 354 57 q 211 -18 297 -18 q 85 24 129 -18 q 42 144 42 65 l 42 607 q 99 724 42 690 q 147 741 118 735 q 200 746 176 747 l 244 743 l 244 763 l 213 749 l 175 828 l 238 857 q 208 874 226 874 q 189 871 197 874 q 168 861 181 868 l 167 861 l 164 860 l 164 999 l 169 1000 q 185 1003 179 1003 q 203 1003 192 1003 q 294 982 260 1003 q 357 913 329 961 l 392 929 l 429 849 l 374 824 l 374 132 z "},"ñ":{"ha":399,"x_min":26,"x_max":379,"o":"m 26 986 q 76 1008 54 1001 q 126 1014 97 1014 q 149 1013 139 1014 q 169 1010 158 1013 q 192 1003 179 1007 q 222 992 204 999 q 261 980 246 983 q 292 976 276 976 q 329 982 314 976 q 379 1010 344 988 l 379 878 q 350 860 361 867 q 330 851 339 854 q 313 846 321 847 q 293 844 304 844 q 276 845 283 844 q 259 848 268 846 q 238 854 250 850 q 206 865 225 858 q 165 878 181 875 q 126 881 149 881 q 76 874 97 881 q 26 853 54 868 l 26 986 m 154 676 q 264 751 178 751 q 340 724 313 751 q 368 649 368 697 l 368 21 q 353 0 368 0 l 264 0 q 244 21 244 0 l 244 582 q 201 631 244 631 q 158 574 158 631 l 158 21 q 143 0 158 0 l 53 0 q 33 21 33 0 l 33 725 q 37 737 33 732 q 44 742 40 742 l 143 742 l 154 676 z "},"ò":{"ha":388,"x_min":29,"x_max":360,"o":"m 89 1085 l 89 1088 q 99 1099 89 1099 l 196 1099 q 208 1085 206 1099 l 283 822 l 285 818 q 272 807 285 807 l 208 807 q 192 819 196 807 l 89 1085 m 233 588 q 193 639 233 639 q 157 588 157 639 l 157 160 q 197 93 157 93 q 225 108 217 93 q 233 160 233 124 l 233 588 m 29 613 q 190 751 29 751 q 322 706 282 751 q 349 659 339 686 q 360 608 360 632 l 360 133 q 325 38 360 83 q 273 -3 303 10 q 199 -17 243 -17 q 73 25 117 -17 q 29 146 29 67 l 29 613 z "},"ó":{"ha":388,"x_min":29,"x_max":360,"o":"m 213 1085 q 226 1099 214 1099 l 322 1099 q 332 1088 332 1099 l 332 1086 l 332 1085 l 229 819 q 213 807 225 807 l 149 807 q 136 818 136 807 l 138 822 l 213 1085 m 233 588 q 193 639 233 639 q 157 588 157 639 l 157 160 q 197 93 157 93 q 225 108 217 93 q 233 160 233 124 l 233 588 m 29 613 q 190 751 29 751 q 322 706 282 751 q 349 659 339 686 q 360 608 360 632 l 360 133 q 325 38 360 83 q 273 -3 303 10 q 199 -17 243 -17 q 73 25 117 -17 q 29 146 29 67 l 29 613 z "},"ô":{"ha":388,"x_min":8,"x_max":381,"o":"m 83 1085 q 97 1099 88 1099 l 292 1099 q 304 1085 304 1099 l 379 822 q 381 818 381 821 q 368 807 381 807 l 304 807 q 288 819 292 807 q 279 839 282 832 q 269 861 276 846 q 240 923 253 897 q 219 968 228 949 q 205 1002 211 988 q 193 1029 199 1017 q 180 996 186 1011 q 164 960 174 981 q 140 908 154 939 q 106 832 126 878 l 101 822 l 101 821 l 100 819 q 83 807 97 807 l 19 807 q 8 818 8 807 l 8 822 l 83 1085 m 233 588 q 193 639 233 639 q 157 588 157 639 l 157 160 q 197 93 157 93 q 225 108 217 93 q 233 160 233 122 l 233 588 m 29 613 q 190 751 29 751 q 322 706 282 751 q 349 659 339 686 q 360 608 360 632 l 360 133 q 325 38 360 83 q 273 -3 303 10 q 199 -17 243 -17 q 73 25 117 -17 q 29 146 29 67 l 29 613 z "},"õ":{"ha":388,"x_min":17,"x_max":369,"o":"m 17 986 q 66 1008 44 1001 q 117 1014 88 1014 q 139 1013 129 1014 q 159 1010 149 1013 q 182 1003 169 1007 q 213 992 194 999 q 251 980 236 983 q 282 976 267 976 q 319 982 304 976 q 369 1010 335 988 l 369 878 q 340 860 351 867 q 320 851 329 854 q 303 846 311 847 q 283 844 294 844 q 266 845 274 844 q 249 848 258 846 q 228 854 240 850 q 196 865 215 858 q 155 878 171 875 q 117 881 139 881 q 66 874 88 881 q 17 853 44 868 l 17 986 m 233 588 q 193 639 233 639 q 157 588 157 639 l 157 160 q 197 93 157 93 q 225 108 217 93 q 233 160 233 124 l 233 588 m 29 613 q 190 751 29 751 q 322 706 282 751 q 349 659 339 686 q 360 608 360 632 l 360 133 q 325 38 360 83 q 273 -3 303 10 q 199 -17 243 -17 q 73 25 117 -17 q 29 146 29 67 l 29 613 z "},"ö":{"ha":388,"x_min":24,"x_max":368,"o":"m 101 1008 q 158 985 133 1008 q 182 929 182 961 q 159 873 182 896 q 103 850 136 850 q 47 874 71 850 q 24 929 24 897 q 47 985 24 963 q 101 1008 69 1008 m 288 1008 q 344 985 319 1008 q 368 929 368 961 q 345 873 368 896 q 289 850 322 850 q 233 874 257 850 q 210 929 210 897 q 233 985 210 963 q 288 1008 256 1008 m 233 588 q 193 639 233 639 q 157 588 157 639 l 157 160 q 197 93 157 93 q 225 108 217 93 q 233 160 233 124 l 233 588 m 29 613 q 190 751 29 751 q 322 706 282 751 q 349 659 339 686 q 360 608 360 632 l 360 133 q 325 38 360 83 q 273 -3 303 10 q 199 -17 243 -17 q 73 25 117 -17 q 29 146 29 67 l 29 613 z "},"÷":{"ha":499,"x_min":28,"x_max":468,"o":"m 246 665 q 306 641 281 665 q 331 581 331 617 q 306 524 331 549 q 246 500 281 500 q 189 524 213 500 q 165 582 165 547 q 189 641 165 617 q 246 665 213 665 m 449 417 q 468 397 468 417 l 468 308 q 449 289 468 289 l 49 289 q 28 308 28 289 l 28 397 q 49 417 28 417 l 449 417 m 246 236 q 306 212 281 236 q 331 151 331 188 q 306 95 331 119 q 246 71 281 71 q 189 94 213 71 q 165 153 165 118 q 189 212 165 188 q 246 236 213 236 z "},"ø":{"ha":388,"x_min":32,"x_max":363,"o":"m 229 -135 q 219 -151 229 -151 l 163 -151 q 153 -135 153 -151 l 153 -12 q 60 42 88 6 q 32 146 32 78 l 32 608 q 59 700 32 669 q 153 744 86 731 l 153 871 q 163 888 153 888 l 219 888 q 229 871 229 888 l 229 744 q 288 729 267 738 q 324 704 308 721 q 351 658 340 688 q 363 604 363 629 l 363 133 q 327 36 363 75 q 229 -15 292 -3 l 229 -135 m 236 583 q 196 635 236 635 q 160 583 160 635 l 160 160 q 200 93 160 93 q 228 108 219 93 q 236 160 236 124 l 236 583 z "},"ù":{"ha":401,"x_min":31,"x_max":368,"o":"m 100 1085 l 100 1088 q 110 1099 100 1099 l 207 1099 q 219 1085 217 1099 l 294 822 l 296 818 q 283 807 296 807 l 219 807 q 203 819 207 807 l 100 1085 m 251 38 q 208 -1 240 14 q 139 -17 175 -17 q 59 28 88 -17 q 31 156 31 74 l 31 725 q 34 737 31 732 q 42 742 38 742 l 151 742 q 158 737 156 742 q 161 725 161 732 l 161 158 q 204 97 161 97 q 243 163 243 97 l 243 725 q 247 737 243 732 q 254 742 250 742 l 358 742 q 365 737 363 742 q 368 725 368 732 l 368 21 q 353 0 368 0 l 268 0 l 251 38 z "},"ú":{"ha":401,"x_min":31,"x_max":368,"o":"m 199 1085 q 213 1099 200 1099 l 308 1099 q 318 1088 318 1099 l 318 1086 l 318 1085 l 215 819 q 199 807 211 807 l 135 807 q 122 818 122 807 l 124 822 l 199 1085 m 251 38 q 208 -1 240 14 q 139 -17 175 -17 q 59 28 88 -17 q 31 156 31 74 l 31 725 q 34 737 31 732 q 42 742 38 742 l 151 742 q 158 737 156 742 q 161 725 161 732 l 161 158 q 204 97 161 97 q 243 163 243 97 l 243 725 q 247 737 243 732 q 254 742 250 742 l 358 742 q 365 737 363 742 q 368 725 368 732 l 368 21 q 353 0 368 0 l 268 0 l 251 38 z "},"û":{"ha":401,"x_min":15,"x_max":388,"o":"m 90 1085 q 104 1099 94 1099 l 299 1099 q 311 1085 311 1099 l 386 822 q 388 818 388 821 q 375 807 388 807 l 311 807 q 294 819 299 807 q 286 839 289 832 q 276 861 283 846 q 247 923 260 897 q 226 968 235 949 q 212 1002 218 988 q 200 1029 206 1017 q 187 996 193 1011 q 171 960 181 981 q 147 908 161 939 q 113 832 133 878 l 108 822 l 108 821 l 107 819 q 90 807 104 807 l 26 807 q 15 818 15 807 l 15 822 l 90 1085 m 251 38 q 208 -1 240 15 q 139 -17 175 -17 q 59 28 88 -17 q 31 156 31 74 l 31 725 q 34 737 31 732 q 42 742 38 742 l 151 742 q 158 737 156 742 q 161 725 161 732 l 161 158 q 204 97 161 97 q 243 163 243 97 l 243 725 q 247 737 243 732 q 254 742 250 742 l 358 742 q 365 737 363 742 q 368 725 368 732 l 368 21 q 353 0 368 0 l 268 0 l 251 38 z "},"ü":{"ha":401,"x_min":26,"x_max":371,"o":"m 104 1008 q 160 985 136 1008 q 185 929 185 961 q 162 873 185 896 q 106 850 139 850 q 50 874 74 850 q 26 929 26 897 q 49 985 26 963 q 104 1008 72 1008 m 290 1008 q 347 985 322 1008 q 371 929 371 961 q 348 873 371 896 q 292 850 325 850 q 236 874 260 850 q 213 929 213 897 q 235 985 213 963 q 290 1008 258 1008 m 251 38 q 208 -1 240 14 q 139 -17 175 -17 q 59 28 88 -17 q 31 156 31 74 l 31 725 q 34 737 31 732 q 42 742 38 742 l 151 742 q 158 737 156 742 q 161 725 161 732 l 161 158 q 204 97 161 97 q 243 163 243 97 l 243 725 q 247 737 243 732 q 254 742 250 742 l 358 742 q 365 737 363 742 q 368 725 368 732 l 368 21 q 353 0 368 0 l 268 0 l 251 38 z "},"ý":{"ha":407,"x_min":18,"x_max":390,"o":"m 192 1085 q 206 1099 193 1099 l 301 1099 q 311 1088 311 1099 l 311 1086 l 311 1085 l 208 819 q 192 807 204 807 l 128 807 q 115 818 115 807 l 117 822 l 192 1085 m 233 -224 l 100 -224 l 138 0 l 18 725 q 28 742 18 742 l 146 742 l 204 272 l 263 742 l 381 742 q 390 725 390 742 l 233 -224 z "},"þ":{"ha":440,"x_min":49,"x_max":411,"o":"m 193 -201 q 174 -221 193 -221 l 68 -221 q 49 -201 49 -221 l 49 990 q 58 1007 49 1007 l 183 1007 q 193 990 193 1007 l 193 749 l 196 754 q 297 800 239 800 q 411 653 411 800 l 411 122 q 378 21 411 61 q 294 -19 344 -19 q 235 -4 263 -19 q 193 38 208 11 l 193 -201 m 193 132 q 231 104 204 104 q 276 169 276 104 l 276 613 q 232 671 276 671 q 193 642 203 671 l 193 132 z "},"ÿ":{"ha":410,"x_min":18,"x_max":390,"o":"m 113 1008 q 169 985 144 1008 q 193 929 193 961 q 170 873 193 896 q 114 850 147 850 q 58 874 82 850 q 35 929 35 897 q 58 985 35 963 q 113 1008 81 1008 m 299 1008 q 355 985 331 1008 q 379 929 379 961 q 356 873 379 896 q 300 850 333 850 q 244 874 268 850 q 221 929 221 897 q 244 985 221 963 q 299 1008 267 1008 m 233 -224 l 100 -224 l 138 0 l 18 725 q 28 742 18 742 l 146 742 l 204 272 l 263 742 l 381 742 q 390 725 390 742 l 233 -224 z "},"Œ":{"ha":604,"x_min":36,"x_max":575,"o":"m 272 815 q 226 869 272 869 q 183 815 183 869 l 183 175 q 225 118 183 118 q 259 134 246 118 q 272 175 272 150 l 272 815 m 310 0 q 267 -15 286 -11 q 225 -19 249 -19 q 85 44 136 -19 q 49 109 61 74 q 36 179 36 144 l 36 833 q 50 908 36 874 q 89 968 64 943 q 148 1008 114 993 q 221 1022 182 1022 q 290 1011 258 1022 l 572 1011 l 572 876 l 424 876 l 424 574 l 574 574 l 574 439 l 425 439 l 425 126 l 575 126 l 575 0 l 310 0 z "},"œ":{"ha":593,"x_min":32,"x_max":568,"o":"m 32 608 q 190 747 32 747 q 249 742 225 747 q 297 722 272 736 q 347 744 324 738 q 401 751 369 751 q 524 706 479 751 q 555 662 543 686 q 567 618 567 638 l 567 376 q 557 360 567 360 l 367 360 l 367 135 q 379 113 367 125 q 403 101 392 101 q 424 116 413 101 q 436 142 436 131 l 436 256 q 446 272 436 272 l 558 272 q 568 256 568 272 l 568 114 q 555 65 568 89 q 519 24 542 42 q 467 -6 496 6 q 406 -17 438 -17 q 355 -10 379 -17 q 301 13 331 -3 q 254 -10 276 -3 q 200 -17 232 -17 q 76 26 119 -17 q 32 146 32 68 l 32 608 m 236 583 q 196 635 236 635 q 160 583 160 635 l 160 160 q 200 93 160 93 q 231 111 224 93 q 239 131 238 126 q 239 138 240 135 l 238 140 l 236 160 l 236 583 m 440 596 q 428 622 440 611 q 400 633 417 633 q 368 592 368 633 l 368 476 l 440 476 l 440 596 z "},"Š":{"ha":435,"x_min":25,"x_max":404,"o":"m 119 1089 q 107 1103 110 1089 l 32 1365 l 31 1369 q 43 1381 31 1381 l 107 1381 q 124 1368 119 1381 q 150 1311 124 1367 q 190 1221 174 1258 q 217 1158 207 1183 q 229 1189 224 1175 q 244 1223 235 1203 q 268 1274 254 1243 q 306 1354 282 1304 q 309 1363 308 1360 q 311 1368 310 1365 q 328 1381 315 1381 l 392 1381 q 404 1369 404 1381 l 403 1365 l 328 1103 q 315 1089 325 1089 l 218 1089 l 119 1089 m 257 819 q 214 868 257 868 q 176 845 186 868 q 165 764 165 822 l 165 754 q 188 665 165 706 q 265 578 211 625 q 373 463 342 511 q 404 360 404 414 l 404 153 q 388 97 404 128 q 347 39 372 65 q 210 -18 290 -18 q 74 41 122 -18 q 25 204 25 100 l 25 356 q 35 372 25 372 l 161 372 q 171 356 171 372 l 171 175 q 180 136 171 147 q 213 125 189 125 q 256 178 256 125 l 256 324 q 250 359 256 338 q 235 404 244 381 q 195 461 221 435 q 114 528 169 488 q 46 607 67 563 q 25 722 25 651 l 25 849 q 39 903 25 874 q 76 961 53 933 q 215 1024 132 1024 q 364 947 308 1024 q 391 898 381 925 q 401 851 401 871 l 401 694 q 382 675 401 675 l 276 675 q 257 694 257 675 l 257 772 l 257 819 z "},"š":{"ha":399,"x_min":17,"x_max":389,"o":"m 104 807 q 92 821 96 807 l 17 1083 l 17 1088 q 28 1099 17 1099 l 92 1099 q 108 1086 106 1099 l 110 1085 l 110 1083 q 120 1061 117 1069 q 135 1029 124 1053 q 176 937 163 969 q 201 876 190 904 q 238 957 214 906 q 294 1082 261 1008 q 296 1086 296 1085 q 313 1099 300 1099 l 376 1099 q 389 1088 389 1099 q 388 1083 389 1085 l 313 821 q 300 807 313 807 l 203 807 l 104 807 m 236 488 l 236 575 q 196 639 236 639 q 157 564 157 639 q 179 486 157 513 q 186 478 183 482 q 194 471 189 475 q 211 459 200 467 q 243 439 222 451 q 361 250 361 367 l 361 164 q 351 92 361 128 q 324 33 340 57 q 274 -6 304 6 q 193 -18 243 -18 q 56 39 83 -18 q 36 97 43 64 q 29 163 29 131 l 29 285 l 153 285 l 153 156 q 190 100 153 100 q 226 123 215 100 q 236 200 236 146 q 233 250 236 231 q 216 288 229 269 q 174 328 203 306 q 96 388 146 351 q 67 415 78 400 q 49 451 56 431 q 39 501 42 472 q 36 571 36 529 q 46 663 36 632 q 81 715 56 693 q 197 747 121 747 q 278 736 247 747 q 328 696 310 725 q 356 616 347 667 q 365 488 364 565 l 236 488 z "},"Ÿ":{"ha":496,"x_min":4,"x_max":500,"o":"m 151 1251 q 208 1228 183 1251 q 232 1172 232 1204 q 209 1116 232 1139 q 153 1093 186 1093 q 97 1117 121 1093 q 74 1172 74 1140 q 97 1228 74 1206 q 151 1251 119 1251 m 338 1251 q 394 1228 369 1251 q 418 1172 418 1204 q 395 1116 418 1139 q 339 1093 372 1093 q 283 1117 307 1093 q 260 1172 260 1140 q 283 1228 260 1206 q 338 1251 306 1251 m 315 331 l 315 19 q 296 0 315 0 l 194 0 q 175 19 175 0 l 175 331 l 4 994 q 14 1011 4 1011 l 163 1011 l 247 567 l 342 1011 l 490 1011 q 500 994 500 1011 l 315 331 z "},"Ž":{"ha":396,"x_min":13,"x_max":385,"o":"m 100 1089 q 88 1103 92 1089 l 13 1365 l 13 1369 q 24 1381 13 1381 l 88 1381 q 104 1368 101 1381 l 106 1367 l 106 1365 q 116 1343 113 1351 q 131 1311 119 1335 q 172 1219 158 1251 q 197 1158 186 1186 q 233 1239 210 1188 q 290 1364 257 1290 q 292 1368 292 1367 q 308 1381 296 1381 l 372 1381 q 385 1369 385 1381 q 383 1365 385 1367 l 308 1103 q 296 1089 308 1089 l 199 1089 l 100 1089 m 347 115 q 364 106 364 115 l 364 10 q 347 0 364 0 l 14 0 l 200 871 l 31 871 q 14 881 14 871 l 14 1001 q 31 1011 14 1011 l 379 1011 l 182 115 l 347 115 z "},"ž":{"ha":385,"x_min":7,"x_max":379,"o":"m 94 807 q 82 821 86 807 l 7 1083 l 7 1088 q 18 1099 7 1099 l 82 1099 q 99 1086 96 1099 l 100 1085 l 100 1083 q 110 1061 107 1069 q 125 1029 114 1053 q 167 937 153 969 q 192 876 181 904 q 228 957 204 906 q 285 1082 251 1008 q 286 1086 286 1085 q 303 1099 290 1099 l 367 1099 q 379 1088 379 1099 q 378 1083 379 1085 l 303 821 q 290 807 303 807 l 193 807 l 94 807 m 322 121 q 339 111 339 121 l 339 10 q 322 0 339 0 l 44 0 l 44 111 l 197 619 l 61 619 q 44 629 44 619 l 44 732 q 61 742 44 742 l 336 742 l 336 618 l 183 121 l 322 121 z "},"ƒ":{"ha":332,"x_min":4,"x_max":313,"o":"m 294 758 q 307 743 307 758 l 307 643 q 294 628 307 628 l 226 628 l 226 -104 q 106 -229 183 -229 l 4 -229 l 4 -110 q 26 -111 10 -111 q 73 -96 56 -111 q 90 -54 90 -81 l 90 628 l 58 628 q 46 643 46 628 l 46 743 q 58 758 46 758 l 97 758 l 97 885 q 132 964 97 917 q 168 998 150 988 q 210 1008 186 1008 l 313 1008 l 313 890 q 290 892 306 892 q 228 833 228 892 l 228 758 l 294 758 z "},"ˆ":{"ha":446,"x_min":38,"x_max":410,"o":"m 321 1099 q 333 1085 333 1099 l 408 822 q 410 818 410 821 q 397 807 410 807 l 333 807 q 317 819 321 807 q 308 839 311 832 q 299 861 306 846 q 269 923 282 897 q 249 968 257 949 q 234 1002 240 988 q 222 1029 228 1017 q 209 996 215 1011 q 193 960 203 981 q 169 908 183 939 q 135 832 156 878 l 131 822 l 131 821 l 129 819 q 113 807 126 807 l 49 807 q 38 818 38 807 l 38 822 l 113 1085 q 125 1099 117 1099 l 224 1099 l 321 1099 z "},"˜":{"ha":418,"x_min":35,"x_max":388,"o":"m 35 986 q 84 1008 63 1001 q 135 1014 106 1014 q 157 1013 147 1014 q 177 1010 167 1013 q 200 1003 188 1007 q 231 992 213 999 q 269 980 254 983 q 300 976 285 976 q 338 982 322 976 q 388 1010 353 988 l 388 878 q 358 860 369 867 q 338 851 347 854 q 321 846 329 847 q 301 844 313 844 q 284 845 292 844 q 267 848 276 846 q 246 854 258 850 q 214 865 233 858 q 173 878 189 875 q 135 881 157 881 q 84 874 106 881 q 35 853 63 868 l 35 986 z "},"–":{"ha":717,"x_min":28,"x_max":679,"o":"m 660 417 q 679 397 679 417 l 679 308 q 660 289 679 289 l 49 289 q 28 308 28 289 l 28 397 q 49 417 28 417 l 660 417 z "},"—":{"ha":1186,"x_min":28,"x_max":1160,"o":"m 1140 417 q 1160 397 1160 417 l 1160 308 q 1140 289 1160 289 l 49 289 q 28 308 28 289 l 28 397 q 49 417 28 417 l 1140 417 z "},"‘":{"ha":178,"x_min":28,"x_max":143,"o":"m 28 883 q 37 928 31 894 q 54 1007 43 961 q 64 1047 60 1028 q 72 1085 68 1067 q 82 1124 79 1117 q 93 1131 85 1131 l 138 1131 q 143 1121 143 1131 q 142 1103 143 1118 q 138 1069 140 1089 q 134 1030 136 1050 q 131 997 132 1010 q 126 954 128 974 q 121 919 124 935 q 115 879 118 888 q 104 871 113 871 l 35 871 q 28 878 28 871 l 28 883 z "},"’":{"ha":172,"x_min":26,"x_max":143,"o":"m 135 1132 q 143 1125 143 1132 q 142 1119 143 1121 q 133 1076 140 1111 q 117 1000 125 1040 q 100 925 108 960 q 90 883 92 890 q 76 872 86 872 l 32 872 q 26 883 26 872 l 26 885 l 26 886 l 28 893 q 32 934 28 899 q 40 1010 36 969 q 49 1083 44 1050 q 53 1119 53 1117 q 65 1132 54 1132 l 135 1132 z "},"‚":{"ha":172,"x_min":26,"x_max":143,"o":"m 135 115 q 143 108 143 115 q 142 103 143 104 q 133 59 140 94 q 117 -17 125 24 q 100 -92 108 -57 q 90 -133 92 -126 q 76 -144 86 -144 l 32 -144 q 26 -133 26 -144 l 26 -132 l 26 -131 l 28 -124 q 32 -83 28 -118 q 40 -7 36 -47 q 49 67 44 33 q 53 103 53 100 q 65 115 54 115 l 135 115 z "},"“":{"ha":340,"x_min":28,"x_max":299,"o":"m 183 883 q 192 928 186 894 q 210 1007 199 961 q 219 1047 215 1028 q 228 1085 224 1067 q 238 1124 235 1117 q 249 1131 240 1131 l 293 1131 q 299 1121 299 1131 q 297 1103 299 1118 q 294 1069 296 1089 q 290 1030 292 1050 q 286 997 288 1010 q 281 954 283 974 q 276 919 279 935 q 271 879 274 888 q 260 871 268 871 l 190 871 q 183 878 183 871 l 183 883 m 28 883 q 37 928 31 894 q 54 1007 43 961 q 64 1047 60 1028 q 72 1085 68 1067 q 82 1124 79 1117 q 93 1131 85 1131 l 138 1131 q 143 1121 143 1131 q 142 1103 143 1118 q 138 1069 140 1089 q 134 1030 136 1050 q 131 997 132 1010 q 126 954 128 974 q 121 919 124 935 q 115 879 118 888 q 104 871 113 871 l 35 871 q 28 878 28 871 l 28 883 z "},"”":{"ha":329,"x_min":26,"x_max":299,"o":"m 135 1132 q 143 1125 143 1132 q 142 1119 143 1121 q 133 1076 140 1111 q 117 1000 125 1040 q 100 925 108 960 q 90 883 92 890 q 76 872 86 872 l 32 872 q 26 883 26 872 l 26 885 l 26 886 l 28 893 q 32 934 28 899 q 40 1010 36 969 q 49 1083 44 1050 q 53 1119 53 1117 q 65 1132 54 1132 l 135 1132 m 290 1132 q 299 1125 299 1132 q 297 1119 299 1121 q 288 1076 296 1111 q 272 1000 281 1040 q 256 925 264 960 q 246 883 247 890 q 232 872 242 872 l 188 872 q 182 883 182 872 l 182 885 l 182 886 l 183 893 q 188 934 183 899 q 196 1010 192 969 q 204 1083 200 1050 q 208 1119 208 1117 q 221 1132 210 1132 l 290 1132 z "},"„":{"ha":332,"x_min":26,"x_max":299,"o":"m 135 115 q 143 108 143 115 q 142 103 143 104 q 133 59 140 94 q 117 -17 125 24 q 100 -92 108 -57 q 90 -133 92 -126 q 76 -144 86 -144 l 32 -144 q 26 -133 26 -144 l 26 -132 l 26 -131 l 28 -124 q 32 -83 28 -118 q 40 -7 36 -47 q 49 67 44 33 q 53 103 53 100 q 65 115 54 115 l 135 115 m 290 115 q 299 108 299 115 q 297 103 299 104 q 288 59 296 94 q 272 -17 281 24 q 256 -92 264 -57 q 246 -133 247 -126 q 232 -144 242 -144 l 188 -144 q 182 -133 182 -144 l 182 -132 l 182 -131 l 183 -124 q 188 -83 183 -118 q 196 -7 192 -47 q 204 67 200 33 q 208 103 208 100 q 221 115 210 115 l 290 115 z "},"†":{"ha":393,"x_min":14,"x_max":375,"o":"m 124 986 q 143 1006 124 1006 l 246 1006 q 261 999 257 1006 q 265 974 265 993 l 265 810 l 365 810 q 375 793 375 810 l 375 694 q 365 678 375 678 l 265 678 l 265 19 q 246 0 265 0 l 143 0 q 124 19 124 0 l 124 678 l 24 678 q 14 694 14 678 l 14 793 q 24 810 14 810 l 124 810 l 124 986 z "},"‡":{"ha":390,"x_min":14,"x_max":375,"o":"m 265 19 q 246 0 265 0 l 143 0 q 124 19 124 0 l 124 178 l 24 178 q 14 194 14 178 l 14 293 q 24 310 14 310 l 124 310 l 124 678 l 24 678 q 14 694 14 678 l 14 793 q 24 810 14 810 l 124 810 l 124 986 q 143 1006 124 1006 l 246 1006 q 261 999 257 1006 q 265 974 265 993 l 265 810 l 365 810 q 375 793 375 810 l 375 694 q 365 678 375 678 l 265 678 l 265 310 l 365 310 q 375 293 375 310 l 375 194 q 365 178 375 178 l 265 178 l 265 19 z "},"•":{"ha":382,"x_min":47,"x_max":328,"o":"m 185 565 q 240 554 214 565 q 285 523 265 543 q 317 477 306 503 q 328 422 328 451 q 317 369 328 394 q 285 326 306 344 q 240 296 265 307 q 185 285 214 285 q 87 324 126 285 q 47 422 47 364 q 87 524 47 483 q 185 565 126 565 z "},"…":{"ha":736,"x_min":28,"x_max":707,"o":"m 622 151 q 682 127 657 151 q 707 67 707 103 q 682 10 707 35 q 622 -14 657 -14 q 565 10 589 -14 q 542 68 542 33 q 565 127 542 103 q 622 151 589 151 m 365 151 q 425 127 400 151 q 450 67 450 103 q 425 10 450 35 q 365 -14 400 -14 q 308 10 332 -14 q 285 68 285 33 q 308 127 285 103 q 365 151 332 151 m 108 151 q 168 127 143 151 q 193 67 193 103 q 168 10 193 35 q 108 -14 143 -14 q 51 10 75 -14 q 28 68 28 33 q 51 127 28 103 q 108 151 75 151 z "},"‰":{"ha":1274,"x_min":28,"x_max":1232,"o":"m 976 643 q 981 668 976 651 q 993 696 986 685 q 1101 757 1026 757 q 1189 726 1154 757 q 1232 643 1224 696 l 1232 93 q 1189 12 1222 42 q 1107 -18 1156 -18 q 1023 13 1058 -18 q 976 94 988 43 l 976 643 m 1074 117 q 1110 83 1081 83 q 1132 92 1124 83 q 1140 117 1140 101 l 1140 625 q 1131 651 1140 640 q 1107 661 1122 661 q 1084 651 1094 661 q 1074 625 1074 640 l 1074 117 m 628 643 q 633 668 628 651 q 644 696 638 685 q 753 757 678 757 q 840 726 806 757 q 883 643 875 696 l 883 93 q 840 12 874 42 q 758 -18 807 -18 q 674 13 710 -18 q 628 94 639 43 l 628 643 m 725 117 q 761 83 732 83 q 783 92 775 83 q 792 117 792 101 l 792 625 q 783 651 792 640 q 758 661 774 661 q 735 651 746 661 q 725 625 725 640 l 725 117 m 289 -208 q 269 -225 285 -225 l 193 -225 q 183 -210 183 -225 l 183 -207 l 183 -201 q 185 -197 185 -199 q 324 258 256 32 q 461 711 392 483 q 495 824 478 768 q 531 939 513 881 q 546 992 544 976 q 561 1011 550 1011 l 646 1011 q 656 1001 656 1011 q 653 992 656 997 l 289 -208 m 28 900 q 33 925 28 908 q 44 953 38 942 q 153 1014 78 1014 q 240 983 206 1014 q 283 900 275 953 l 283 350 q 240 269 274 299 q 158 239 207 239 q 74 269 110 239 q 28 351 39 300 l 28 900 m 125 374 q 161 340 132 340 q 183 349 175 340 q 192 374 192 358 l 192 882 q 183 908 192 897 q 158 918 174 918 q 135 908 146 918 q 125 882 125 897 l 125 374 z "},"‹":{"ha":354,"x_min":29,"x_max":321,"o":"m 29 521 q 43 533 29 531 l 306 608 l 310 610 q 321 597 321 610 l 321 533 q 308 517 321 521 q 281 503 304 514 q 215 474 258 493 q 145 442 175 454 q 99 422 115 429 q 132 408 115 415 q 170 392 149 401 q 220 369 192 382 q 288 339 249 357 q 303 331 301 332 q 308 329 306 331 q 321 313 321 325 l 321 249 q 310 236 321 236 l 306 238 l 43 313 q 29 325 29 315 l 29 424 l 29 521 z "},"›":{"ha":354,"x_min":29,"x_max":321,"o":"m 321 325 q 307 313 321 315 l 44 238 l 40 236 q 29 249 29 236 l 29 313 q 42 329 29 325 q 56 335 44 331 q 99 356 68 340 q 190 397 150 379 q 251 422 229 414 q 221 435 235 429 q 187 450 207 440 q 136 474 167 460 q 56 511 106 488 q 47 515 50 514 q 42 517 44 515 q 29 533 29 521 l 29 597 q 40 610 29 610 l 44 608 l 307 533 q 321 521 321 531 l 321 424 l 321 325 z "},"€":{"ha":718,"x_min":29,"x_max":706,"o":"m 669 849 q 621 870 642 864 q 572 876 600 876 q 485 859 528 876 q 406 810 442 842 q 350 744 369 778 q 321 663 331 711 l 611 663 l 579 539 l 292 539 l 289 497 q 288 490 289 492 l 288 479 l 560 479 l 528 354 l 303 354 q 331 266 310 307 q 384 194 353 225 q 453 147 415 164 q 531 131 490 129 q 661 193 604 149 l 661 43 q 573 -1 613 13 q 489 -14 533 -14 q 254 106 350 -14 q 217 157 233 132 q 190 211 201 182 q 169 275 178 240 q 153 354 160 310 l 29 354 l 63 479 l 144 479 l 144 483 q 146 489 144 488 l 146 504 l 146 507 l 146 508 l 146 517 l 149 526 l 149 539 l 29 539 l 64 663 l 171 663 q 206 785 183 736 q 268 881 228 833 q 535 1021 392 1021 q 612 1013 572 1021 q 706 985 651 1004 l 669 849 z "},"™":{"ha":601,"x_min":40,"x_max":567,"o":"m 414 661 l 479 1011 l 560 1011 q 567 1001 567 1011 l 567 514 q 557 504 567 504 l 503 504 l 503 847 l 443 504 l 385 504 l 318 840 l 318 504 l 265 504 q 256 514 256 504 l 256 1001 q 264 1011 256 1011 l 336 1011 l 414 661 m 167 514 q 157 504 167 504 l 106 504 q 96 514 96 504 l 96 946 l 40 946 l 40 1003 q 46 1011 40 1011 l 217 1011 q 221 1003 221 1011 l 221 946 l 167 946 l 167 514 z "}}}
